<svg width="60" height="60" viewBox="0 0 60 60" fill="none" xmlns="http://www.w3.org/2000/svg">
<path d="M9.72622 37.4634C9.72622 37.4634 9.88215 35.4056 9.45808 33.4329C9.03401 31.4603 8.00396 29.9412 6.74121 29.3482C5.47845 28.7552 3.96527 29.5632 5.05556 30.9133C6.14586 32.2635 8.40677 34.6709 8.39377 38.1898L9.72622 37.4634Z" fill="#E0E0E0"/>
<path d="M9.0777 37.3916H9.09305C9.1129 37.391 9.1317 37.3826 9.1454 37.3682C9.15911 37.3538 9.16661 37.3346 9.16629 37.3148C9.04817 33.0056 7.61177 30.8474 5.95329 29.7548C5.93683 29.744 5.91678 29.7402 5.89752 29.7442C5.87826 29.7482 5.86137 29.7596 5.85052 29.7761C5.84499 29.7841 5.84111 29.7931 5.83912 29.8027C5.83713 29.8122 5.83707 29.8221 5.83894 29.8317C5.84082 29.8412 5.84458 29.8503 5.85002 29.8584C5.85545 29.8665 5.86245 29.8735 5.8706 29.8788C7.50663 30.962 8.89933 33.0753 9.01627 37.3207C9.01682 37.3378 9.02323 37.3541 9.03441 37.367C9.0456 37.3799 9.06088 37.3886 9.0777 37.3916Z" fill="white"/>
<path d="M3.30855 33.5959C3.33217 33.8321 3.52472 34.0164 3.70899 34.1711C3.89327 34.3259 4.0929 34.4912 4.14251 34.7251C4.2441 35.1976 3.68301 35.6347 3.80467 36.1025C3.83696 36.1989 3.88861 36.2877 3.95645 36.3635C4.02429 36.4393 4.10691 36.5004 4.19921 36.5431C4.35031 36.6175 4.50527 36.6837 4.66344 36.7415C4.74106 36.7649 4.81994 36.7838 4.89969 36.7982C5.1361 36.8195 5.35897 36.9179 5.53402 37.0782C5.79154 37.3581 5.75964 37.7869 5.8506 38.1602C5.96164 38.6032 6.22506 38.869 6.82867 39.0745L8.89586 37.9027C9.41089 37.3782 9.5928 36.4852 9.11794 35.8698C8.83326 35.5036 8.30051 35.4575 8.03119 35.0901C7.79494 34.7618 7.9296 34.2869 7.78194 33.9089C7.63429 33.5309 7.24093 33.3986 6.87002 33.3336C6.49911 33.2687 6.10457 33.4222 5.74311 33.2899C5.38164 33.1576 5.04499 32.9438 4.66935 32.8505C4.48706 32.7963 4.2948 32.7846 4.10726 32.8161C3.91973 32.8476 3.74188 32.9216 3.58732 33.0324C3.49769 33.0958 3.42526 33.1804 3.37658 33.2788C3.32791 33.3772 3.30452 33.4862 3.30855 33.5959Z" fill="#EBEBEB"/>
<path d="M7.1617 35.4566C7.15793 35.4483 7.15227 35.441 7.14516 35.4353C6.17417 34.058 4.65036 33.4035 4.13652 33.289C4.12926 33.2863 4.12151 33.2852 4.1138 33.2858C4.10609 33.2864 4.09859 33.2886 4.0918 33.2923C4.08501 33.296 4.07909 33.3011 4.07444 33.3073C4.06978 33.3134 4.06649 33.3205 4.0648 33.3281C4.0631 33.3356 4.06304 33.3434 4.06461 33.351C4.06617 33.3586 4.06934 33.3657 4.07389 33.372C4.07845 33.3782 4.08428 33.3834 4.091 33.3872C4.09773 33.3911 4.10519 33.3934 4.11289 33.3941C4.60075 33.5028 6.01471 34.1028 6.96679 35.3715C6.57878 35.2406 6.16791 35.1913 5.75994 35.2266C5.35197 35.262 4.95571 35.3813 4.59602 35.577C4.58405 35.5848 4.57561 35.5969 4.57251 35.6109C4.56942 35.6248 4.57192 35.6394 4.57949 35.6515C4.58444 35.6586 4.59094 35.6646 4.59851 35.6689C4.60607 35.6732 4.61451 35.6757 4.62319 35.6763C4.6342 35.6766 4.645 35.6733 4.6539 35.6668C5.02254 35.4675 5.4303 35.3512 5.8486 35.3261C6.26691 35.3011 6.68565 35.3677 7.07547 35.5215C7.64279 36.3337 7.92713 37.31 7.88462 38.2998C7.88394 38.3134 7.88845 38.3266 7.89723 38.337C7.90601 38.3473 7.91841 38.3539 7.93187 38.3553C7.94609 38.3557 7.95986 38.3504 7.97024 38.3407C7.98062 38.331 7.98678 38.3176 7.98739 38.3034C8.03258 37.2895 7.74239 36.2889 7.1617 35.4566Z" fill="white"/>
<path d="M52.1449 38.8491C52.1248 37.3134 52.1532 35.8959 52.9328 33.7153C53.5861 31.8832 55.2658 30.0357 56.3998 30.1137C57.457 30.1869 57.6909 31.4851 56.74 32.6404C55.7891 33.7957 53.7184 36.0058 53.5908 37.6017L53.1856 39.4125L52.1449 38.8491Z" fill="#E0E0E0"/>
<path d="M52.6139 38.4615C52.6282 38.4578 52.6409 38.4496 52.6503 38.4381C52.6596 38.4266 52.6651 38.4125 52.6659 38.3977C52.8312 34.8256 54.8264 31.8489 56.4907 30.9334C56.5064 30.9246 56.5179 30.91 56.5228 30.8927C56.5277 30.8754 56.5255 30.8569 56.5167 30.8413C56.508 30.8256 56.4933 30.8141 56.476 30.8092C56.4588 30.8043 56.4403 30.8065 56.4246 30.8153C54.733 31.7449 52.6977 34.7701 52.5265 38.3918C52.526 38.4007 52.5273 38.4095 52.5302 38.4179C52.5332 38.4262 52.5377 38.4339 52.5436 38.4405C52.5496 38.4471 52.5567 38.4524 52.5647 38.4562C52.5727 38.46 52.5814 38.4622 52.5903 38.4627L52.6139 38.4615Z" fill="white"/>
<path d="M53.5754 39.6287C53.6403 39.0901 54.1341 38.1392 55.0389 37.2733C56.0406 36.3165 57.4085 35.7318 57.6377 35.0738C57.9165 34.2848 57.2183 33.8631 56.0643 34.1099C54.6763 34.4064 53.1383 35.994 52.8749 39.2378L53.5754 39.6287Z" fill="#EBEBEB"/>
<path d="M53.2648 39.1242C53.2775 39.1212 53.289 39.1146 53.2981 39.1052C53.3071 39.0957 53.3132 39.0839 53.3156 39.071C53.8459 36.236 55.7407 34.9686 56.6691 34.6933C56.6862 34.6881 56.7005 34.6764 56.7089 34.6607C56.7173 34.6449 56.7192 34.6265 56.714 34.6094C56.7117 34.6008 56.7077 34.5927 56.7022 34.5857C56.6967 34.5786 56.6898 34.5728 56.6819 34.5685C56.6741 34.5642 56.6655 34.5615 56.6566 34.5606C56.6477 34.5597 56.6387 34.5607 56.6302 34.5634C55.6048 34.867 53.7243 36.1522 53.1821 39.045C53.1804 39.0538 53.1804 39.0628 53.1823 39.0716C53.1841 39.0803 53.1876 39.0886 53.1927 39.096C53.1977 39.1034 53.2042 39.1097 53.2117 39.1145C53.2192 39.1193 53.2276 39.1226 53.2364 39.1242C53.2457 39.1265 53.2555 39.1265 53.2648 39.1242Z" fill="white"/>
<path d="M11.8784 54.5963C1.83781 48.7999 1.83781 39.4007 11.8784 33.6031C21.9191 27.8055 38.199 27.8067 48.2397 33.6031C58.2803 39.3995 58.2803 48.7999 48.2397 54.5963C38.199 60.3927 21.9191 60.3939 11.8784 54.5963Z" fill="#FAFAFA"/>
<path d="M31.6396 50.3203L34.3883 48.7327C34.4061 48.7266 34.4216 48.7152 34.4325 48.6999C34.4435 48.6847 34.4494 48.6664 34.4494 48.6476C34.4494 48.6288 34.4435 48.6105 34.4325 48.5953C34.4216 48.58 34.4061 48.5686 34.3883 48.5626L33.715 48.1739C33.6693 48.1506 33.6187 48.1384 33.5674 48.1384C33.516 48.1384 33.4654 48.1506 33.4197 48.1739L30.6709 49.7615C30.6531 49.7675 30.6377 49.779 30.6267 49.7942C30.6158 49.8095 30.6099 49.8278 30.6099 49.8466C30.6099 49.8654 30.6158 49.8837 30.6267 49.8989C30.6377 49.9142 30.6531 49.9256 30.6709 49.9316L31.0076 50.1253L27.556 52.1181C27.4745 52.1654 27.5087 52.1807 27.5465 52.2032C27.5843 52.2256 27.6127 52.2445 27.6942 52.2032L31.1446 50.2116L31.3431 50.3297C31.3897 50.3518 31.4409 50.3624 31.4925 50.3608C31.544 50.3592 31.5944 50.3453 31.6396 50.3203Z" fill="#E0E0E0"/>
<path d="M30.6013 47.2737C30.3867 47.2781 30.1747 47.2268 29.9858 47.1248L29.9303 47.0894L29.8287 47.0173L30.6946 46.8909L30.7725 46.7279L30.5363 46.5909L29.7094 46.709L29.7366 46.6311C29.7861 46.5131 29.8762 46.4168 29.9905 46.3594C30.1766 46.2607 30.3848 46.2111 30.5953 46.2153C30.6885 46.2149 30.7815 46.2236 30.8729 46.2413L33.6938 44.6135C33.6597 44.5425 33.6513 44.4619 33.6701 44.3855C33.691 44.3199 33.7251 44.2593 33.7701 44.2073C33.8152 44.1553 33.8704 44.1131 33.9324 44.0831C34.119 43.9848 34.3275 43.9352 34.5384 43.939C34.7531 43.9344 34.9653 43.9861 35.1538 44.089C35.1729 44.0999 35.1914 44.1117 35.2093 44.1245L35.3109 44.1953L34.445 44.3217L34.3671 44.4859L34.6033 44.6229L35.4302 44.5048L35.403 44.5816C35.3536 44.6999 35.2635 44.7966 35.1491 44.8545C34.9628 44.9526 34.7548 45.0022 34.5443 44.9986C34.4511 44.9986 34.3581 44.9895 34.2667 44.9714L31.4458 46.6004C31.4799 46.6709 31.4882 46.7511 31.4695 46.8272C31.4487 46.8928 31.4147 46.9535 31.3696 47.0055C31.3245 47.0575 31.2693 47.0997 31.2072 47.1296C31.0208 47.2284 30.8122 47.278 30.6013 47.2737Z" fill="#E0E0E0"/>
<path d="M18.7143 53.4198C23.6914 53.4198 27.7261 51.0901 27.7261 48.2163C27.7261 45.3426 23.6914 43.0129 18.7143 43.0129C13.7373 43.0129 9.70258 45.3426 9.70258 48.2163C9.70258 51.0901 13.7373 53.4198 18.7143 53.4198Z" fill="#E0E0E0"/>
<path d="M33.4623 48.5152L45.4213 41.6108L52.1024 45.4676L40.1434 52.372L33.4623 48.5152Z" fill="#E0E0E0"/>
<path d="M30.3768 44.4919L25.7121 41.7986C25.5432 41.7018 25.5432 41.5423 25.7121 41.4442L33.2555 37.0901C33.3507 37.0418 33.4559 37.0166 33.5627 37.0166C33.6694 37.0166 33.7746 37.0418 33.8698 37.0901L38.5345 39.7822C38.7035 39.8803 38.7035 40.0397 38.5345 40.1366L30.9911 44.4919C30.8959 44.5402 30.7907 44.5654 30.684 44.5654C30.5772 44.5654 30.472 44.5402 30.3768 44.4919Z" fill="#E0E0E0"/>
<path d="M30.684 44.0431V40.165L25.8857 37.3938L26.3653 41.5494L30.684 44.0431Z" fill="#263238"/>
<path d="M30.684 44.043L37.8813 39.8873L38.3609 35.7317L30.684 40.1649V44.043Z" fill="#37474F"/>
<path d="M25.5857 36.5635C25.5892 36.5254 25.6028 36.489 25.625 36.4579C25.6472 36.4267 25.6772 36.4021 25.7121 36.3863L33.2555 32.0311C33.3507 31.9827 33.4559 31.9575 33.5627 31.9575C33.6694 31.9575 33.7746 31.9827 33.8698 32.0311L38.5346 34.7243C38.5695 34.7399 38.5996 34.7646 38.6218 34.7957C38.6441 34.8269 38.6576 34.8634 38.6609 34.9015V36.0095C38.6578 36.0478 38.6443 36.0846 38.6221 36.116C38.5999 36.1473 38.5696 36.1722 38.5346 36.1879L30.9911 40.542C30.8959 40.5903 30.7907 40.6155 30.684 40.6155C30.5772 40.6155 30.472 40.5903 30.3768 40.542L25.7121 37.8487C25.6773 37.8329 25.6473 37.8082 25.6251 37.7771C25.6029 37.746 25.5893 37.7096 25.5857 37.6715V36.5635Z" fill="#53B6C7"/>
<path opacity="0.2" d="M25.7121 36.3861L30.684 33.5156V40.6161C30.5769 40.6181 30.4711 40.5925 30.3768 40.5417L25.7121 37.8484C25.6773 37.8326 25.6473 37.8079 25.6251 37.7768C25.6029 37.7457 25.5893 37.7093 25.5857 37.6713V36.5621C25.5894 36.5242 25.6031 36.488 25.6252 36.4571C25.6474 36.4262 25.6774 36.4017 25.7121 36.3861Z" fill="black"/>
<path opacity="0.1" d="M30.684 33.5159L33.2555 32.0311C33.3507 31.9827 33.4559 31.9575 33.5627 31.9575C33.6694 31.9575 33.7746 31.9827 33.8698 32.0311L38.5345 34.7243C38.5695 34.7399 38.5996 34.7646 38.6218 34.7957C38.644 34.8269 38.6575 34.8634 38.6609 34.9015V36.0095C38.6577 36.0478 38.6443 36.0846 38.6221 36.116C38.5999 36.1473 38.5696 36.1722 38.5345 36.1879L30.9911 40.542C30.8968 40.5928 30.791 40.6184 30.684 40.6164V33.5159Z" fill="black"/>
<path d="M30.3768 39.434L25.7121 36.7407C25.5432 36.6427 25.5432 36.4844 25.7121 36.3863L33.2555 32.0311C33.3507 31.9827 33.4559 31.9575 33.5627 31.9575C33.6694 31.9575 33.7746 31.9827 33.8698 32.0311L38.5345 34.7243C38.7035 34.8224 38.7035 34.9806 38.5345 35.0787L30.9911 39.434C30.8959 39.4823 30.7907 39.5075 30.684 39.5075C30.5772 39.5075 30.472 39.4823 30.3768 39.434Z" fill="#53B6C7"/>
<path opacity="0.2" d="M37.1619 35.0396C37.2942 35.1164 37.2871 35.244 37.1454 35.3255L31.8995 38.3554C31.8233 38.3957 31.7386 38.4174 31.6524 38.4189C31.5662 38.4203 31.4809 38.4014 31.4033 38.3636C31.271 38.288 31.2781 38.1593 31.4199 38.0778L36.6658 35.049C36.7419 35.0086 36.8265 34.9866 36.9127 34.985C36.999 34.9833 37.0843 35.002 37.1619 35.0396Z" fill="black"/>
<path opacity="0.2" d="M31.8994 38.3553C31.8232 38.3956 31.7386 38.4173 31.6524 38.4188C31.5662 38.4202 31.4808 38.4013 31.4033 38.3635L31.3773 38.3458C31.3906 38.3348 31.4048 38.3249 31.4198 38.3163L36.6658 35.2876C36.7419 35.2471 36.8265 35.2251 36.9127 35.2235C36.9989 35.2218 37.0843 35.2406 37.1619 35.2781L37.1879 35.297C37.1746 35.3077 37.1603 35.3172 37.1454 35.3254L31.8994 38.3553Z" fill="black"/>
<path opacity="0.2" d="M33.3229 32.8236C33.4564 32.8992 33.4493 33.028 33.3075 33.1095L28.0604 36.1382C27.9845 36.1787 27.9001 36.2006 27.8141 36.2023C27.7281 36.2039 27.6429 36.1852 27.5655 36.1476C27.4332 36.0709 27.4403 35.9433 27.5808 35.8618L32.8279 32.8319C32.9039 32.7916 32.9884 32.7698 33.0744 32.7684C33.1604 32.7669 33.2456 32.7859 33.3229 32.8236Z" fill="black"/>
<path opacity="0.2" d="M28.0604 36.138C27.9845 36.1784 27.9001 36.2004 27.8141 36.202C27.7281 36.2037 27.6429 36.185 27.5655 36.1474C27.5562 36.1421 27.5474 36.1357 27.5395 36.1285C27.5526 36.1181 27.5664 36.1087 27.5808 36.1002L32.8279 33.0714C32.9038 33.0307 32.9882 33.0086 33.0743 33.0069C33.1603 33.0053 33.2456 33.0242 33.3229 33.062C33.3319 33.0673 33.3406 33.0733 33.3489 33.0797C33.336 33.0908 33.3222 33.1007 33.3075 33.1092L28.0604 36.138Z" fill="black"/>
<path opacity="0.2" d="M28.5235 36.4312C28.3912 36.508 28.3983 36.6356 28.54 36.7171L30.43 37.8062C30.5059 37.8467 30.5903 37.8686 30.6763 37.8702C30.7624 37.8719 30.8475 37.8532 30.9249 37.8156C31.0572 37.7388 31.0502 37.6113 30.9096 37.5298L29.0196 36.4406C28.9435 36.4002 28.8589 36.3782 28.7727 36.3766C28.6865 36.3749 28.6011 36.3936 28.5235 36.4312Z" fill="black"/>
<path opacity="0.2" d="M30.4288 37.8C30.5048 37.8405 30.5892 37.8624 30.6752 37.8641C30.7612 37.8657 30.8464 37.847 30.9238 37.8094C30.9328 37.8041 30.9415 37.7982 30.9498 37.7917C30.9369 37.7807 30.9231 37.7708 30.9084 37.7622L29.0184 36.6731C28.9423 36.6326 28.8577 36.6106 28.7715 36.609C28.6853 36.6073 28.5999 36.6261 28.5223 36.6636C28.5135 36.6693 28.5053 36.6756 28.4975 36.6825C28.5102 36.6934 28.5241 36.7029 28.5388 36.7109L30.4288 37.8Z" fill="black"/>
<path opacity="0.2" d="M27.5655 36.9791C27.4332 37.0547 27.4403 37.1835 27.5808 37.265L29.4708 38.3541C29.5469 38.3946 29.6315 38.4165 29.7178 38.4182C29.804 38.4198 29.8893 38.4011 29.9669 38.3635C30.0992 38.2868 30.0922 38.158 29.9504 38.0765L28.0604 36.9874C27.9844 36.9471 27.8999 36.9253 27.8139 36.9239C27.7279 36.9225 27.6428 36.9414 27.5655 36.9791Z" fill="black"/>
<path opacity="0.2" d="M29.4696 38.354C29.5457 38.3945 29.6303 38.4164 29.7165 38.4181C29.8027 38.4197 29.8881 38.401 29.9657 38.3634C29.9752 38.3575 29.9823 38.3505 29.9905 38.3446C29.9777 38.3335 29.9638 38.3236 29.9492 38.315L28.0592 37.2259C27.9832 37.1856 27.8987 37.1639 27.8127 37.1624C27.7267 37.161 27.6416 37.1799 27.5643 37.2176C27.555 37.2226 27.5463 37.2285 27.5383 37.2354C27.5511 37.2464 27.565 37.2563 27.5796 37.2649L29.4696 38.354Z" fill="black"/>
<path opacity="0.2" d="M34.282 33.1011C34.1497 33.1779 34.1556 33.3055 34.2974 33.387L36.1874 34.4761C36.2633 34.5166 36.3477 34.5385 36.4337 34.5402C36.5197 34.5418 36.6049 34.5231 36.6823 34.4855C36.8158 34.4088 36.8087 34.2812 36.667 34.1997L34.777 33.1106C34.701 33.0701 34.6166 33.0481 34.5306 33.0465C34.4446 33.0448 34.3594 33.0636 34.282 33.1011Z" fill="black"/>
<path opacity="0.2" d="M36.1862 34.4762C36.2623 34.5167 36.3469 34.5387 36.4332 34.5403C36.5194 34.542 36.6047 34.5232 36.6824 34.4857C36.6911 34.4801 36.6994 34.4737 36.7072 34.4668C36.6942 34.4561 36.6804 34.4466 36.6658 34.4384L34.7758 33.3493C34.6999 33.3089 34.6155 33.2869 34.5295 33.2853C34.4435 33.2836 34.3583 33.3023 34.2809 33.3399C34.2718 33.3452 34.2632 33.3511 34.2549 33.3576C34.2678 33.3687 34.2816 33.3785 34.2962 33.3871L36.1862 34.4762Z" fill="black"/>
<path opacity="0.2" d="M33.3228 33.654C33.1905 33.7308 33.1976 33.8595 33.3382 33.941L35.2282 35.0301C35.3044 35.0703 35.389 35.092 35.4751 35.0936C35.5613 35.0953 35.6466 35.0768 35.7243 35.0396C35.8566 34.9628 35.8495 34.834 35.7078 34.7525L33.8178 33.6634C33.7417 33.6235 33.6574 33.6018 33.5714 33.6002C33.4855 33.5986 33.4004 33.617 33.3228 33.654Z" fill="black"/>
<path opacity="0.2" d="M35.227 35.0301C35.3033 35.0702 35.3878 35.092 35.474 35.0936C35.5601 35.0952 35.6454 35.0767 35.7231 35.0395L35.7491 35.0206C35.7358 35.0096 35.7216 34.9997 35.7066 34.9911L33.8166 33.902C33.7404 33.8619 33.6558 33.8401 33.5697 33.8385C33.4835 33.8368 33.3982 33.8554 33.3205 33.8925L33.2945 33.9114C33.3076 33.9222 33.3214 33.9321 33.3358 33.941L35.227 35.0301Z" fill="black"/>
<path d="M30.2044 35.4921V36.5635L30.684 36.8411L31.1636 36.5635V35.7508C31.1685 35.6621 31.1941 35.5759 31.2384 35.4989C31.2827 35.422 31.3445 35.3565 31.4187 35.3078L32.6 34.6239L32.8244 34.4951C32.965 34.4136 33.0796 34.4798 33.0796 34.6428V35.4555L33.5592 35.1779V34.1065C33.5604 34.0852 33.5604 34.0639 33.5592 34.0427C33.5581 34.0264 33.5558 34.0102 33.5521 33.9943C33.5487 33.9758 33.544 33.9576 33.5379 33.9399C33.5331 33.9259 33.5276 33.9121 33.5214 33.8986C33.5148 33.8851 33.5073 33.872 33.4989 33.8596C33.4912 33.8475 33.4825 33.836 33.4729 33.8253C33.464 33.815 33.4541 33.8055 33.4434 33.797C33.4331 33.7888 33.422 33.7817 33.4103 33.7757L33.395 33.7675L32.9331 33.5005C32.8754 33.4735 32.8115 33.4625 32.7481 33.4687C32.6847 33.475 32.6241 33.4982 32.5728 33.5359L30.7171 34.6073C30.568 34.704 30.4438 34.8345 30.3547 34.9883C30.2656 35.142 30.2141 35.3147 30.2044 35.4921Z" fill="#455A64"/>
<path d="M32.6024 34.6236V35.1764L33.0819 35.454V34.6413C33.0819 34.4783 32.9638 34.4121 32.8268 34.4936L32.6024 34.6236Z" fill="#263238"/>
<path d="M30.684 35.7683V36.8409L31.1635 36.5633V35.7506C31.1684 35.6619 31.194 35.5756 31.2384 35.4987C31.2827 35.4218 31.3445 35.3563 31.4187 35.3076L32.5999 34.6248L32.8244 34.4961C32.965 34.4146 33.0795 34.4807 33.0795 34.6437V35.4564L33.5591 35.18V34.1074C33.5604 34.0862 33.5604 34.0649 33.5591 34.0437C33.5581 34.0273 33.5557 34.0111 33.552 33.9952C33.5487 33.9768 33.544 33.9586 33.5379 33.9409C33.5331 33.9268 33.5275 33.913 33.5213 33.8995C33.5148 33.886 33.5073 33.873 33.4989 33.8606C33.4912 33.8484 33.4825 33.837 33.4729 33.8263C33.4639 33.816 33.4541 33.8065 33.4434 33.798C33.4331 33.7898 33.422 33.7827 33.4103 33.7767L33.3949 33.7684C33.3385 33.7473 33.2778 33.7404 33.2181 33.7482C33.1583 33.7561 33.1014 33.7784 33.0524 33.8133L31.1966 34.8847C31.0479 34.9815 30.9241 35.112 30.835 35.2654C30.746 35.4189 30.6942 35.5911 30.684 35.7683Z" fill="#37474F"/>
<path d="M33.0831 40.4414L32.9059 40.3398L32.4251 40.6163L32.6035 40.719L33.0831 40.4414Z" fill="#455A64"/>
<path d="M32.6035 40.719L32.4263 43.0378L32.4251 40.6162L32.6035 40.719Z" fill="#263238"/>
<path d="M33.0831 40.4412L32.9059 42.76L32.9638 42.7328L33.0831 40.4412Z" fill="#37474F"/>
<path d="M29.0668 40.8938L29.244 40.791L29.7236 41.0674L29.5464 41.1702L29.0668 40.8938Z" fill="#455A64"/>
<path d="M29.0668 40.8938L29.244 43.2114L29.1861 43.1842L29.0668 40.8938Z" fill="black"/>
<path d="M27.1473 39.7847L27.3257 39.6831L27.8053 39.9595L27.6269 40.0623L27.1473 39.7847Z" fill="#455A64"/>
<path d="M29.7236 43.4889L29.5464 41.1702L29.7236 41.0674V43.4889Z" fill="#37474F"/>
<path d="M27.8053 39.9595V42.381L27.6269 40.0622L27.8053 39.9595Z" fill="#37474F"/>
<path d="M27.1473 39.7847L27.3245 42.1035L27.2666 42.0763L27.1473 39.7847Z" fill="black"/>
<path d="M36.4413 38.5032L36.2641 38.4004L35.7845 38.6768L35.9617 38.7796L36.4413 38.5032Z" fill="#455A64"/>
<path d="M35.9617 38.7793L35.7845 41.0981V38.6765L35.9617 38.7793Z" fill="#263238"/>
<path d="M36.4414 38.5032L36.2642 40.822L36.3233 40.7936L36.4414 38.5032Z" fill="#37474F"/>
<path d="M32.1676 40.048L32.1688 39.4939L33.128 38.9399L33.2886 39.0321L33.2874 39.5861L32.3271 40.1401L32.1676 40.048Z" fill="#37474F"/>
<path d="M33.2886 39.032L33.2874 39.586L32.3271 40.14L32.3294 39.586L33.2886 39.032Z" fill="#455A64"/>
<path d="M32.3294 39.5863L32.1688 39.4941L32.1676 40.0481L32.3271 40.1403L32.3294 39.5863Z" fill="#263238"/>
<path d="M35.5519 38.0953L35.5542 37.5413L36.5134 36.9873L36.6741 37.0794L36.6717 37.6334L35.7125 38.1875L35.5519 38.0953Z" fill="#37474F"/>
<path d="M36.6741 37.0793L36.6717 37.6334L35.7125 38.1874L35.7137 37.6334L36.6741 37.0793Z" fill="#455A64"/>
<path d="M35.7137 37.6334L35.5542 37.5413L35.5519 38.0953L35.7125 38.1874L35.7137 37.6334Z" fill="#263238"/>
<path d="M30.0319 46.3253C29.9669 46.3619 29.8453 46.3608 29.8063 46.4045V46.5639L30.5481 46.4564L30.8281 46.6206L30.7217 46.8439L29.9728 46.7931V46.9526C29.9887 46.9645 30.0053 46.9756 30.0224 46.9856C30.1997 47.0753 30.3955 47.1221 30.5942 47.1221C30.7928 47.1221 30.9887 47.0753 31.1659 46.9856C31.2312 46.9563 31.2876 46.9101 31.3291 46.8518C31.3706 46.7934 31.3958 46.725 31.4021 46.6537V46.4942L31.3584 46.5013C31.358 46.4986 31.358 46.4958 31.3584 46.4931L34.1651 44.8724C34.4504 44.9357 34.7489 44.8981 35.0097 44.7661C35.1106 44.7167 35.1906 44.6329 35.2353 44.5298V44.3692L34.4935 44.6373L34.2135 44.4731L34.3198 44.2499L35.0687 44.1412V43.9805C35.0687 43.9805 34.1934 43.9227 33.8745 44.0987C33.7937 44.1411 33.7256 44.2043 33.6772 44.2818L33.6347 44.2664V44.4247C33.6342 44.4838 33.6511 44.5417 33.6831 44.5913L30.8765 46.2119C30.5903 46.1508 30.2918 46.1909 30.0319 46.3253Z" fill="#37474F"/>
<path d="M34.1651 44.8772V44.7178L31.3585 46.3384V46.4979L34.1651 44.8772Z" fill="#37474F"/>
<path d="M33.6831 44.4388L30.8765 46.0595C30.5912 45.9963 30.2929 46.0335 30.0319 46.1646C29.931 46.214 29.851 46.2978 29.8063 46.4009L30.5481 46.2934L30.8281 46.4576L30.7217 46.6796L29.9728 46.7895C29.9887 46.8015 30.0053 46.8125 30.0224 46.8226C30.1997 46.9123 30.3955 46.959 30.5942 46.959C30.7928 46.959 30.9887 46.9123 31.1659 46.8226C31.4021 46.6903 31.4636 46.4965 31.3584 46.33L34.1651 44.7093C34.4505 44.772 34.7487 44.7345 35.0097 44.603C35.1106 44.5536 35.1906 44.4698 35.2353 44.3668L34.4935 44.4754L34.2135 44.3112L34.3198 44.088L35.0687 43.9781L35.0191 43.9462C34.8419 43.8565 34.646 43.8098 34.4474 43.8098C34.2488 43.8098 34.0529 43.8565 33.8757 43.9462C33.6477 44.0785 33.578 44.2723 33.6831 44.4388Z" fill="#455A64"/>
<path d="M34.2726 44.3503L34.2135 44.316L34.3198 44.0928L35.0687 43.9829V44.1436L34.3198 44.2522L34.2726 44.3503Z" fill="#263238"/>
<path d="M30.769 46.5851L30.8281 46.461L30.5481 46.2957L29.8063 46.4043V46.565L30.5481 46.4563L30.769 46.5851Z" fill="#263238"/>
<path d="M31.7495 48.6829L32.3401 49.6988L34.3199 48.5565C34.3657 48.5282 34.4025 48.4873 34.4259 48.4388C34.4493 48.3902 34.4584 48.336 34.4522 48.2825C34.4444 48.1383 34.4027 47.998 34.3304 47.873C34.2582 47.748 34.1574 47.6418 34.0364 47.5631C33.9945 47.5326 33.9453 47.5139 33.8938 47.5089C33.8422 47.5039 33.7903 47.5129 33.7434 47.5348L31.7495 48.6829Z" fill="#53B6C7"/>
<path d="M31.6313 48.8934C31.6231 49.0481 31.4045 49.0812 31.4045 49.0812L31.8192 49.8006C31.8192 49.8006 31.9574 49.6305 32.0956 49.6978C32.2999 49.7864 32.4594 49.6765 32.4594 49.432C32.4515 49.288 32.4097 49.148 32.3374 49.0232C32.2652 48.8984 32.1645 48.7924 32.0436 48.7138C31.831 48.5898 31.6561 48.6725 31.6313 48.8934Z" fill="#53B6C7"/>
<path opacity="0.05" d="M31.6313 48.8934C31.6231 49.0481 31.4045 49.0812 31.4045 49.0812L31.8192 49.8006C31.8192 49.8006 31.9574 49.6305 32.0956 49.6978C32.2999 49.7864 32.4594 49.6765 32.4594 49.432C32.4515 49.288 32.4097 49.148 32.3374 49.0232C32.2652 48.8984 32.1645 48.7924 32.0436 48.7138C31.831 48.5898 31.6561 48.6725 31.6313 48.8934Z" fill="black"/>
<path opacity="0.05" d="M31.5025 49.0503C31.4709 49.0646 31.4375 49.0749 31.4033 49.081L31.8179 49.8004C31.8408 49.7744 31.8666 49.751 31.8947 49.7307C31.8829 49.5956 31.8416 49.4646 31.7739 49.3471C31.7062 49.2296 31.6135 49.1283 31.5025 49.0503Z" fill="black"/>
<path d="M30.971 49.1319L31.0053 49.1922C30.9935 49.2341 30.9875 49.2774 30.9875 49.3209C30.9955 49.4651 31.0373 49.6053 31.1095 49.7303C31.1817 49.8553 31.2824 49.9615 31.4033 50.0403C31.44 50.0624 31.4799 50.0787 31.5215 50.0888L31.5557 50.149L31.6939 50.0698C31.7357 50.0394 31.7687 49.9985 31.7894 49.9512C31.8102 49.9038 31.818 49.8519 31.8121 49.8005C31.8043 49.6565 31.7628 49.5163 31.6907 49.3913C31.6187 49.2663 31.5182 49.16 31.3974 49.0811C31.3554 49.0507 31.3059 49.032 31.2542 49.027C31.2025 49.022 31.1504 49.0309 31.1033 49.0528L30.971 49.1319Z" fill="#53B6C7"/>
<path d="M31.6797 49.8808C31.672 49.7368 31.6304 49.5966 31.5584 49.4716C31.4864 49.3466 31.3859 49.2403 31.2651 49.1614C31.0359 49.0291 30.8493 49.1366 30.8493 49.3977C30.8574 49.5418 30.8993 49.682 30.9715 49.8069C31.0437 49.9319 31.1443 50.0381 31.2651 50.1171C31.4943 50.2517 31.6797 50.1454 31.6797 49.8808Z" fill="#53B6C7"/>
<path opacity="0.15" d="M31.6797 49.8808C31.672 49.7368 31.6304 49.5966 31.5584 49.4716C31.4864 49.3466 31.3859 49.2403 31.2651 49.1614C31.0359 49.0291 30.8493 49.1366 30.8493 49.3977C30.8574 49.5418 30.8993 49.682 30.9715 49.8069C31.0437 49.9319 31.1443 50.0381 31.2651 50.1171C31.4943 50.2517 31.6797 50.1454 31.6797 49.8808Z" fill="black"/>
<path opacity="0.15" d="M31.1033 49.9883C31.134 50.0227 31.1685 50.0536 31.206 50.0804L31.3029 49.804L31.1848 49.7178L31.1033 49.9883Z" fill="black"/>
<path opacity="0.2" d="M34.1096 47.998C34.1236 48.0245 34.127 48.0554 34.1191 48.0844C34.1113 48.1133 34.0926 48.1382 34.067 48.1539L32.6495 48.9702C32.623 48.9847 32.592 48.9885 32.5628 48.9808C32.5335 48.9731 32.5084 48.9545 32.4924 48.9288C32.4784 48.9023 32.475 48.8714 32.4829 48.8424C32.4908 48.8135 32.5094 48.7886 32.535 48.7729L33.9525 47.9567C33.979 47.9421 34.01 47.9383 34.0393 47.946C34.0685 47.9537 34.0936 47.9723 34.1096 47.998Z" fill="black"/>
<path opacity="0.2" d="M33.8544 47.6943C33.8654 47.6998 33.8746 47.7083 33.881 47.7187C33.8874 47.7291 33.8908 47.7411 33.8908 47.7534C33.8908 47.7656 33.8874 47.7776 33.881 47.788C33.8746 47.7985 33.8654 47.8069 33.8544 47.8124L32.4133 48.6393C32.3866 48.6522 32.3568 48.6573 32.3273 48.6539C32.2978 48.6506 32.2699 48.639 32.2468 48.6204C32.2358 48.6149 32.2266 48.6064 32.2202 48.596C32.2138 48.5856 32.2104 48.5736 32.2104 48.5613C32.2104 48.5491 32.2138 48.5371 32.2202 48.5267C32.2266 48.5162 32.2358 48.5078 32.2468 48.5023L33.6867 47.6754C33.7136 47.6623 33.7436 47.6571 33.7733 47.6604C33.803 47.6638 33.8312 47.6755 33.8544 47.6943Z" fill="black"/>
<path opacity="0.2" d="M34.2454 48.3713C34.245 48.3594 34.2415 48.3478 34.2351 48.3377C34.2288 48.3276 34.2199 48.3193 34.2093 48.3138C34.1987 48.3083 34.1869 48.3057 34.175 48.3062C34.163 48.3068 34.1515 48.3105 34.1415 48.317L32.7003 49.1439C32.6759 49.1606 32.6566 49.1839 32.6447 49.211C32.6328 49.2382 32.6287 49.2681 32.633 49.2974C32.6334 49.3094 32.6369 49.321 32.6433 49.3311C32.6496 49.3412 32.6585 49.3494 32.6691 49.355C32.6797 49.3605 32.6915 49.3631 32.7035 49.3626C32.7154 49.362 32.7269 49.3583 32.737 49.3518L34.1781 48.5249C34.2025 48.5081 34.2217 48.4848 34.2336 48.4577C34.2455 48.4306 34.2496 48.4007 34.2454 48.3713Z" fill="black"/>
<path d="M27.6233 51.5569V51.8333L28.3155 51.6088C28.3838 51.4797 28.4779 51.3659 28.5919 51.2745L31.2214 49.7566L31.3017 49.5263L31.2214 49.4802L28.5919 50.9981C28.5486 51.0201 28.5002 51.0302 28.4516 51.0276C28.4031 51.0249 28.3562 51.0094 28.3155 50.9828L27.6233 51.5569Z" fill="#455A64"/>
<path d="M27.7048 51.6044V51.8808L28.397 51.6564C28.4651 51.5271 28.5592 51.4132 28.6735 51.3221L31.3029 49.8042V49.5266L28.6735 51.0445C28.6302 51.0668 28.5819 51.0772 28.5333 51.0747C28.4848 51.0722 28.4378 51.0569 28.397 51.0303L27.7048 51.6044Z" fill="#37474F"/>
<path d="M27.7049 51.8808L27.6246 51.8335V51.5571L27.7049 51.6044V51.8808Z" fill="#263238"/>
<path d="M27.6246 51.557L27.7049 51.6042L28.3971 51.0302L28.3168 50.9829L27.6246 51.557Z" fill="#455A64"/>
<path d="M37.4785 15.9882H31.3904C31.3669 15.9882 31.3443 15.9789 31.3277 15.9623C31.3111 15.9457 31.3018 15.9231 31.3018 15.8996C31.3018 15.8761 31.3111 15.8536 31.3277 15.837C31.3443 15.8204 31.3669 15.811 31.3904 15.811H37.4785C37.502 15.811 37.5245 15.8204 37.5412 15.837C37.5578 15.8536 37.5671 15.8761 37.5671 15.8996C37.5671 15.9231 37.5578 15.9457 37.5412 15.9623C37.5245 15.9789 37.502 15.9882 37.4785 15.9882Z" fill="#37474F"/>
<path d="M23.489 19.9254C22.9043 18.8091 21.9604 16.397 21.9604 16.397L21.9805 13.1592C21.9569 13.1592 22.4176 13.2986 22.5582 13.3316C23.4701 13.6683 23.7217 13.8289 24.1127 14.631C24.4234 15.2701 25.4699 18.1842 25.842 19.1706L28.0687 17.5865C28.6298 17.114 28.7609 16.4407 29.1035 16.0213C29.446 15.602 29.8347 15.4862 30.2221 15.1307C30.6096 14.7751 30.756 14.5105 30.9049 14.7952C31.0537 15.0799 30.6308 15.6032 30.5576 15.7296C30.5068 15.8194 30.378 15.8855 30.3485 15.9859C30.3001 16.1584 30.5564 16.1312 30.6663 16.104C31.2096 15.9859 31.7034 15.5276 32.0389 15.1082C32.17 14.944 32.6484 14.3062 32.7701 14.8212C32.8693 15.2405 32.5244 15.5087 32.4996 15.895C32.4875 16.1089 32.4312 16.3181 32.3342 16.5092C32.2527 16.684 32.2905 16.8872 32.2326 17.0703C32.0542 17.6397 31.6018 17.8346 31.0762 18.0153C30.5505 18.196 29.9823 18.3201 29.5464 18.6555C29.0172 19.0642 27.7379 20.4416 26.9595 21.2696C25.9708 22.3221 25.3187 22.569 24.7399 21.9489C24.1611 21.3287 23.7099 20.3388 23.489 19.9254Z" fill="#FFA8A7"/>
<path d="M32.7736 14.8271C32.6555 14.3121 32.1735 14.9452 32.0424 15.1142C31.7069 15.5335 31.2155 15.9918 30.6698 16.11C30.56 16.1336 30.3036 16.1608 30.3521 15.9918C30.3816 15.8914 30.5103 15.8253 30.5611 15.7355C30.6344 15.6091 31.0573 15.0846 30.9084 14.8011C30.7596 14.5176 30.6143 14.7799 30.2257 15.1366C29.837 15.4933 29.4496 15.6091 29.107 16.0273C28.7645 16.4454 28.6345 17.1211 28.0722 17.5924L27.9199 17.7011C28.012 18.3236 28.3924 18.9331 28.944 19.2131C29.1873 18.9769 29.4 18.7796 29.55 18.6626C29.9859 18.3272 30.5682 18.1901 31.0797 18.0224C31.5912 17.8547 32.0578 17.6491 32.2361 17.0774C32.294 16.8943 32.2562 16.6911 32.3377 16.5163C32.4348 16.3252 32.4911 16.116 32.5031 15.9021C32.5279 15.5146 32.8728 15.2465 32.7736 14.8271Z" fill="#455A64"/>
<path d="M28.1868 17.4839C28.1762 17.6894 28.2907 18.2375 28.5518 18.5293C28.7294 18.7173 28.9437 18.8669 29.1814 18.9687L29.2759 18.8955C29.2759 18.8955 29.3657 18.9049 29.1247 19.1471C28.8837 19.3892 28.827 19.479 28.6924 19.4589C28.5577 19.4389 28.1773 19.2227 27.9198 18.8222C27.7325 18.5404 27.6214 18.2148 27.5974 17.8772C27.6044 17.7591 27.7698 17.6741 27.9198 17.5654C28.0699 17.4567 28.2258 17.276 28.3096 17.348L28.1868 17.4839Z" fill="#53B6C7"/>
<path opacity="0.2" d="M28.1868 17.4839C28.1762 17.6894 28.2907 18.2375 28.5518 18.5293C28.7294 18.7173 28.9437 18.8669 29.1814 18.9687L29.2759 18.8955C29.2759 18.8955 29.3657 18.9049 29.1247 19.1471C28.8837 19.3892 28.827 19.479 28.6924 19.4589C28.5577 19.4389 28.1773 19.2227 27.9198 18.8222C27.7325 18.5404 27.6214 18.2148 27.5974 17.8772C27.6044 17.7591 27.7698 17.6741 27.9198 17.5654C28.0699 17.4567 28.2258 17.276 28.3096 17.348L28.1868 17.4839Z" fill="black"/>
<path d="M22.2675 13.2124C22.8641 13.3506 23.3307 13.5762 23.6142 13.8172C24.0512 14.1952 24.2508 14.7846 24.5485 15.5891C24.8462 16.3935 25.6116 18.3532 25.6116 18.3532C24.7256 18.6352 23.9708 19.2269 23.4854 20.0199L21.4584 15.8017L22.2675 13.2124Z" fill="#E0E0E0"/>
<path d="M25.8514 19.1729C25.4583 19.371 25.1396 19.6909 24.9431 20.0848C24.9431 20.0848 24.9431 19.4339 25.7699 18.9473L25.8514 19.1729Z" fill="#F28F8F"/>
<path d="M15.4115 13.5524C15.4115 13.5524 14.7182 14.1619 14.541 14.821C14.4547 15.1447 14.3744 15.4117 14.6485 17.2119C14.9095 18.9282 15.095 18.9282 15.2285 20.2371L15.0371 23.5127C16.0636 24.7152 20.8571 25.3271 23.255 23.7076C23.255 23.7076 23.359 18.7345 23.1901 16.6862C23.072 15.2935 22.4872 13.8654 22.2675 13.2122C21.6155 13.0941 20.9882 13.0232 20.9882 13.0232L18.5903 12.8838L15.4115 13.5524Z" fill="#FAFAFA"/>
<path d="M22.1175 8.64331C22.4318 7.92038 22.1234 6.96121 21.7466 6.51115C21.2021 5.86028 20.3551 5.57915 19.077 5.65829C18.106 5.71853 17.1504 6.12252 16.9685 7.1195C16.1888 7.35575 16.2774 8.63386 16.4712 9.19968C16.8657 10.3479 17.6406 11.346 17.6524 11.9331L22.1175 8.64331Z" fill="#37474F"/>
<path d="M22.1163 11.3425C21.9628 11.8965 21.6438 12.3028 21.13 12.3831C20.8609 12.4085 20.59 12.4085 20.3208 12.3831L20.3409 13.0919C21.404 14.4373 18.9163 14.7102 17.6878 13.236L17.6146 10.8534C17.6146 10.8534 17.3016 11.2078 16.7877 10.8723C16.5787 10.7181 16.4293 10.4965 16.3648 10.245C16.3002 9.99338 16.3244 9.72723 16.4333 9.49144C16.6897 8.95161 17.2023 9.17487 17.3606 9.33906C17.5189 9.50325 17.702 9.81156 17.8331 9.76903C17.9089 9.74548 17.9776 9.70345 18.033 9.64675C18.0885 9.59004 18.129 9.52044 18.1509 9.44419C18.2701 9.10809 18.3266 8.75293 18.3174 8.39642C18.4692 8.31886 18.6054 8.21394 18.7191 8.08693C18.9266 7.86872 19.0518 7.58521 19.0734 7.28487C20.1803 6.93876 21.4537 7.10177 21.9084 7.45851C22.173 7.9251 22.1837 9.00949 22.2274 9.63437C22.2758 10.3136 22.2451 10.8794 22.1163 11.3425Z" fill="#FFA8A7"/>
<path d="M20.3208 12.3868C19.7538 12.3549 18.6139 12.0903 18.3127 11.7749C18.0115 11.4595 17.8804 10.811 17.8804 10.811C17.8804 10.811 17.9253 11.6285 18.1603 11.9923C18.3954 12.3561 18.9872 12.5109 19.3416 12.6006C19.6674 12.6683 19.9967 12.718 20.3279 12.7495L20.3208 12.3868Z" fill="#F28F8F"/>
<path d="M19.9618 9.27297C19.9618 9.33422 19.938 9.39309 19.8955 9.43717C19.853 9.48124 19.795 9.50708 19.7338 9.50922C19.6867 9.51087 19.6403 9.49843 19.6003 9.47349C19.5604 9.44855 19.5289 9.41225 19.5097 9.36926C19.4905 9.32626 19.4847 9.27852 19.4928 9.23216C19.501 9.1858 19.5228 9.14294 19.5555 9.10906C19.5882 9.07519 19.6303 9.05185 19.6763 9.04205C19.7223 9.03224 19.7703 9.03641 19.8139 9.05403C19.8576 9.07164 19.895 9.10189 19.9213 9.1409C19.9476 9.17991 19.9617 9.2259 19.9618 9.27297Z" fill="#263238"/>
<path d="M19.6417 8.5405L19.1774 8.85354C19.1366 8.78962 19.122 8.7124 19.1368 8.638C19.1515 8.56361 19.1944 8.49778 19.2566 8.45427C19.2873 8.43381 19.3218 8.41979 19.358 8.41305C19.3943 8.4063 19.4316 8.40698 19.4675 8.41504C19.5035 8.4231 19.5375 8.43838 19.5675 8.45994C19.5974 8.4815 19.6226 8.50891 19.6417 8.5405Z" fill="#263238"/>
<path d="M21.8943 8.68703L21.3851 8.44369C21.3993 8.40975 21.4202 8.37905 21.4466 8.35348C21.4731 8.3279 21.5044 8.30798 21.5388 8.29494C21.5732 8.28189 21.6099 8.27599 21.6466 8.2776C21.6834 8.27921 21.7194 8.2883 21.7525 8.3043C21.8204 8.33803 21.8729 8.39642 21.8993 8.46755C21.9256 8.53868 21.9238 8.61718 21.8943 8.68703Z" fill="#263238"/>
<path d="M21.7171 9.19133C21.7157 9.23632 21.7011 9.27991 21.675 9.31665C21.649 9.3534 21.6128 9.38166 21.5708 9.39793C21.5288 9.41419 21.483 9.41773 21.439 9.4081C21.395 9.39848 21.3549 9.37611 21.3235 9.3438C21.2922 9.31148 21.271 9.27065 21.2628 9.2264C21.2545 9.18216 21.2594 9.13645 21.2769 9.09498C21.2945 9.05352 21.3238 9.01814 21.3614 8.99326C21.3989 8.96838 21.4429 8.9551 21.4879 8.95508C21.5493 8.95692 21.6076 8.98262 21.6504 9.02673C21.6932 9.07084 21.7171 9.12988 21.7171 9.19133Z" fill="#263238"/>
<path d="M20.4886 8.78052L20.654 10.4272L21.5387 10.1602L20.4886 8.78052Z" fill="#F28F8F"/>
<path d="M19.9606 10.811L20.9056 11.0213C20.8952 11.0848 20.872 11.1456 20.8373 11.1998C20.8026 11.254 20.7572 11.3006 20.7039 11.3366C20.6506 11.3727 20.5905 11.3975 20.5273 11.4095C20.464 11.4215 20.399 11.4204 20.3362 11.4064C20.2091 11.3744 20.0992 11.2947 20.0293 11.1839C19.9594 11.073 19.9347 10.9395 19.9606 10.811Z" fill="#B16668"/>
<path d="M20.3397 11.4063C20.3593 11.4097 20.379 11.4121 20.3988 11.4134C20.3963 11.2983 20.3488 11.1887 20.2664 11.1083C20.184 11.0279 20.0733 10.9831 19.9582 10.9834C19.9715 11.0842 20.0151 11.1787 20.0832 11.2542C20.1513 11.3297 20.2408 11.3827 20.3397 11.4063Z" fill="#F28F8F"/>
<path d="M16.2833 8.54037C16.3126 8.82899 16.3834 9.11187 16.4936 9.38024C16.5562 9.30109 16.6282 9.22313 16.7015 9.14399C17.129 8.72477 17.6273 8.38445 18.1733 8.13874C19.4361 7.54812 20.9823 7.34967 22.2203 7.69341C22.1749 7.44809 22.0974 7.2098 21.9899 6.98466C21.6934 6.33964 21.1777 5.82076 20.5344 5.52038C19.8912 5.22 19.1623 5.15761 18.4774 5.34433C17.7925 5.53104 17.196 5.95474 16.7943 6.54C16.3925 7.12527 16.2114 7.83411 16.2833 8.54037Z" fill="#53B6C7"/>
<path d="M17.5827 5.55688C17.7327 5.48364 18.4875 5.25802 18.549 5.23912C18.94 5.121 19.5696 5.12809 20.2157 5.65965C20.7203 6.08077 21.075 6.65389 21.2269 7.29332L20.4236 7.54492L20.1673 7.56973C20.0728 6.9791 19.2943 5.7069 18.2005 5.65965C18.1494 5.65612 18.0981 5.65612 18.0469 5.65965C17.902 5.6669 17.7591 5.69597 17.6229 5.74588C17.4742 5.84985 17.3325 5.9635 17.1988 6.08608C17.2122 5.97242 17.2546 5.8641 17.3218 5.77145C17.389 5.67881 17.4788 5.60494 17.5827 5.55688Z" fill="#53B6C7"/>
<path opacity="0.45" d="M17.5827 5.55688C17.7327 5.48364 18.4875 5.25802 18.549 5.23912C18.94 5.121 19.5696 5.12809 20.2157 5.65965C20.7203 6.08077 21.075 6.65389 21.2269 7.29332L20.4236 7.54492L20.1673 7.56973C20.0728 6.9791 19.2943 5.7069 18.2005 5.65965C18.1494 5.65612 18.0981 5.65612 18.0469 5.65965C17.902 5.6669 17.7591 5.69597 17.6229 5.74588C17.4742 5.84985 17.3325 5.9635 17.1988 6.08608C17.2122 5.97242 17.2546 5.8641 17.3218 5.77145C17.389 5.67881 17.4788 5.60494 17.5827 5.55688Z" fill="white"/>
<path d="M20.1696 7.57062C20.0515 6.88313 19.0096 5.25655 17.6252 5.74677C17.4761 5.85072 17.3341 5.96437 17.2 6.08697C17.2134 5.97332 17.2556 5.86499 17.3226 5.77218C17.3896 5.67938 17.4791 5.60518 17.5827 5.55659C17.943 5.38294 18.6659 5.29789 19.4136 5.91096C19.9177 6.33178 20.272 6.9045 20.4236 7.54345L20.1696 7.57062Z" fill="#53B6C7"/>
<path opacity="0.3" d="M20.1696 7.57062C20.0515 6.88313 19.0096 5.25655 17.6252 5.74677C17.4761 5.85072 17.3341 5.96437 17.2 6.08697C17.2134 5.97332 17.2556 5.86499 17.3226 5.77218C17.3896 5.67938 17.4791 5.60518 17.5827 5.55659C17.943 5.38294 18.6659 5.29789 19.4136 5.91096C19.9177 6.33178 20.272 6.9045 20.4236 7.54345L20.1696 7.57062Z" fill="black"/>
<path d="M18.1509 7.90255C18.2088 7.85176 18.4887 7.24932 19.4857 6.7213C20.1011 6.39292 21.3627 6.37638 21.9285 6.38583C22.9196 6.40237 23.1558 6.61263 23.1688 6.7591C23.1688 6.79336 23.1854 6.95401 23.1901 6.98945C23.1946 7.02248 23.1871 7.05604 23.1688 7.08395C23.0212 7.30839 22.2238 7.6982 22.2238 7.6982C20.9859 7.35445 19.4396 7.5529 18.1769 8.14353L18.1509 7.90255Z" fill="#53B6C7"/>
<path opacity="0.15" d="M18.1509 7.90255C18.2088 7.85176 18.4887 7.24932 19.4857 6.7213C20.1011 6.39292 21.3627 6.37638 21.9285 6.38583C22.9196 6.40237 23.1558 6.61263 23.1688 6.7591C23.1688 6.79336 23.1854 6.95401 23.1901 6.98945C23.1946 7.02248 23.1871 7.05604 23.1688 7.08395C23.0212 7.30839 22.2238 7.6982 22.2238 7.6982C20.9859 7.35445 19.4396 7.5529 18.1769 8.14353L18.1509 7.90255Z" fill="black"/>
<path d="M18.1733 8.13921C19.4361 7.54859 20.9824 7.35014 22.2203 7.69388C22.2203 7.69388 23.0212 7.30407 23.1653 7.07963C23.2456 6.9556 23.1736 6.63784 21.9486 6.61776C21.3816 6.60831 20.12 6.62485 19.5046 6.95324C18.5112 7.49071 18.2312 8.08842 18.1733 8.13921Z" fill="#53B6C7"/>
<path opacity="0.3" d="M18.1733 8.13921C19.4361 7.54859 20.9824 7.35014 22.2203 7.69388C22.2203 7.69388 23.0212 7.30407 23.1653 7.07963C23.2456 6.9556 23.1736 6.63784 21.9486 6.61776C21.3816 6.60831 20.12 6.62485 19.5046 6.95324C18.5112 7.49071 18.2312 8.08842 18.1733 8.13921Z" fill="black"/>
<path d="M21.9876 44.3383C22.0254 43.7111 22.3621 37.3926 22.3621 37.3926L19.2908 39.5578C19.8259 43.1701 19.9441 44.2592 19.9665 44.8616C19.9538 44.9122 19.9491 44.9644 19.9523 45.0164C19.9689 45.7322 20.8265 46.1055 21.4986 46.5732C22.0716 46.9862 22.6785 47.3497 23.313 47.66C23.7985 47.8833 24.7766 47.8903 24.8923 47.5939C24.0749 47.0198 23.1287 46.3937 22.4743 45.7346C22.166 45.4192 21.9416 45.0896 21.9876 44.3383Z" fill="#FFA8A7"/>
<path d="M26.2862 48.345C26.3275 48.345 26.3984 48.7762 26.1763 48.964C25.9212 49.1802 25.1663 49.5404 24.1587 49.4306C23.1511 49.3207 22.6007 49.0337 22.192 48.7218C21.7832 48.41 21.2103 47.9635 20.7532 47.8749C20.3291 47.7922 19.8673 47.6162 19.7291 47.4945C19.5908 47.3729 19.6003 46.8188 19.6003 46.8188L26.2862 48.345Z" fill="#263238"/>
<path d="M23.144 45.972C23.0779 45.9106 23.0141 45.8539 22.9515 45.7854C22.7405 45.5555 22.5771 45.2861 22.4707 44.9928C22.4055 44.8527 22.3548 44.7062 22.3195 44.5557C22.2876 44.3821 22.2676 44.2013 22.238 44.0324C22.2274 43.9675 22.238 43.8245 22.1577 43.7962C22.0641 43.7856 21.9695 43.8033 21.886 43.847C21.6817 43.9344 21.4679 44.0017 21.2576 44.0761C21.1395 44.1175 20.8973 44.1813 20.8619 44.3124C20.8264 44.4435 20.8855 44.6065 20.8619 44.7483C20.8512 44.8038 20.8276 44.8664 20.7626 44.8593C20.6445 44.8593 20.615 44.6892 20.5843 44.6065C20.5181 44.4329 20.4662 44.3514 20.2783 44.3006C20.1803 44.2734 19.9889 44.2604 19.924 44.173L19.8992 43.9367C19.8455 43.9476 19.795 43.9707 19.7518 44.0043C19.7085 44.0379 19.6737 44.0811 19.6499 44.1305C19.5684 44.2994 19.6227 44.5345 19.6499 44.714C19.6832 44.8923 19.6982 45.0736 19.6948 45.255C19.6806 45.4101 19.6557 45.564 19.6204 45.7157C19.5702 45.9805 19.5453 46.2495 19.546 46.519C19.5436 46.644 19.553 46.769 19.5743 46.8922C19.5929 46.9942 19.6495 47.0854 19.7326 47.1474C19.8593 47.259 20.0054 47.3463 20.1638 47.4049C20.3799 47.4911 20.6032 47.5573 20.8229 47.6341C21.2753 47.79 21.8021 48.1184 22.2652 48.4692C22.7282 48.82 23.7429 49.1886 24.3985 49.1886C25.4002 49.1886 26.0995 48.8578 26.2885 48.5129C26.3063 48.2767 26.3204 48.0404 26.2129 47.8727C25.8586 47.3317 25.0825 47.1568 24.4576 46.8592C24.1857 46.7219 23.9229 46.5672 23.6709 46.3961C23.4837 46.2697 23.3075 46.1279 23.144 45.972Z" fill="#37474F"/>
<path d="M24.845 47.0222C23.6177 47.3695 23.1913 48.1976 23.0106 48.8673C23.4507 49.0552 23.9206 49.164 24.3985 49.1886C25.4002 49.1886 26.0995 48.8579 26.2885 48.513C26.3062 48.2767 26.3204 48.0405 26.2129 47.8727C25.9353 47.4357 25.379 47.2372 24.845 47.0222Z" fill="#455A64"/>
<path d="M20.8193 47.6293L20.8713 47.6494C20.8228 46.7044 20.433 46.0783 19.579 45.9519C19.5543 46.1383 19.5421 46.3261 19.5424 46.5142C19.54 46.6392 19.5494 46.7642 19.5707 46.8875C19.5893 46.9895 19.6459 47.0806 19.729 47.1426C19.8557 47.2542 20.0018 47.3415 20.1602 47.4001C20.3763 47.4863 20.5996 47.5525 20.8193 47.6293Z" fill="#455A64"/>
<path d="M16.9271 39.2529L13.7259 38.5571C13.642 40.5381 13.6928 43.2183 13.6255 45.0776C13.6125 45.432 13.4318 47.7945 13.5322 48.5198C13.6834 49.6124 15.147 49.5416 15.2674 48.899C15.3879 48.2564 15.4942 45.5088 15.5191 45.2241C15.5864 44.0334 16.2668 42.0347 16.7428 39.9085C16.7665 39.8104 16.9047 39.3545 16.9271 39.2529Z" fill="#FFA8A7"/>
<path d="M15.7849 49.381C15.7731 50.0177 15.6798 50.4441 15.4412 50.8245C15.2026 51.2048 14.7265 51.3419 14.2339 51.2509C13.7414 51.1599 13.1023 50.8965 12.9346 50.3484C12.7668 49.8003 12.781 49.4294 12.8649 48.8364L15.7849 49.381Z" fill="#263238"/>
<path d="M13.6515 43.9827C13.4519 44.0039 13.4153 45.7321 13.3349 46.5897C13.2522 47.5087 12.9605 47.8985 12.8837 48.6533C12.7963 49.5156 12.8648 49.896 13.2286 50.4016C13.5924 50.9072 14.8221 51.3714 15.382 50.6071C15.838 49.9834 15.8274 49.3077 15.7447 48.4572C15.6585 47.5748 15.6549 46.1597 15.6655 45.4864C15.675 44.8438 15.8699 44.1646 15.6915 44.0996C15.6537 44.2721 15.6301 44.4197 15.61 44.5119C15.5663 44.715 15.5179 44.9607 15.4565 44.9147C15.4565 44.9147 15.4742 44.7339 15.4765 44.6513C15.4789 44.5686 15.4966 44.5142 15.4411 44.4611C15.3856 44.4079 15.1446 44.3748 15.0619 44.3642C14.8623 44.3359 14.6627 44.3134 14.4607 44.304C14.3603 44.304 14.2587 44.304 14.1583 44.304C14.0725 44.3063 13.9875 44.3202 13.9055 44.3453C13.8825 44.3524 13.8612 44.3643 13.8431 44.3802C13.825 44.396 13.8104 44.4156 13.8003 44.4374C13.7938 44.4698 13.7938 44.5031 13.8003 44.5355C13.8031 44.5946 13.7975 44.6539 13.7838 44.7115C13.7767 44.7375 13.759 44.7694 13.7295 44.7647C13.6999 44.7599 13.6822 44.7434 13.674 44.6855C13.66 44.5679 13.6536 44.4495 13.6551 44.3311C13.6551 44.2756 13.6551 44.1988 13.6551 44.1433C13.6551 44.0878 13.6503 44.037 13.6515 43.9827Z" fill="#37474F"/>
<path d="M12.8506 49.1521C12.84 49.686 12.892 50.0486 13.1767 50.4443C13.5405 50.9499 14.867 51.4118 15.421 50.6475C15.6998 50.2672 15.7589 49.8277 15.7754 49.3812C15.4021 48.8225 13.3905 48.6441 12.8506 49.1521Z" fill="#455A64"/>
<path d="M23.385 18.0957C23.385 18.0957 20.9552 18.6426 17.3122 18.3922C17.3122 20.7996 17.5661 23.5613 16.4132 23.546L15.0371 23.5129C14.9603 27.1181 14.3508 34.6344 14.3508 34.6344C14.2964 35.0774 13.655 36.9603 13.6314 38.562C13.5948 41.0746 13.5416 42.9787 13.5416 42.9787C13.5416 42.9787 14.945 43.5339 15.9762 43.1488C15.9762 43.1488 17.3169 37.8084 17.6937 36.1417C18.1414 34.156 19.0663 30.487 19.0663 30.487L19.1786 35.7117C19.0473 36.7645 19.0331 37.8286 19.136 38.8845C19.2542 39.9476 19.6853 42.8901 19.6853 42.8901C19.6853 42.8901 20.9764 43.15 22.0962 42.8181C22.0962 42.8181 22.7707 36.4901 22.8263 35.5156C22.8865 34.4525 23.222 24.6871 23.2527 23.7763C23.5598 19.1848 23.385 18.0957 23.385 18.0957Z" fill="#455A64"/>
<path d="M17.3122 18.3922C17.1421 16.2116 17.1468 14.4197 16.3294 13.3601L17.3736 13.1404C17.3736 13.1404 18.2773 15.1414 18.2773 18.4666L17.3122 18.3922Z" fill="#455A64"/>
<path d="M22.4258 18.3354C22.4258 15.9599 21.9025 13.9234 21.0733 13.0339L22.2675 13.2123C22.2675 13.2123 23.385 15.0102 23.385 18.3354H22.4258Z" fill="#455A64"/>
<path d="M18.6246 18.8905C18.6246 18.8905 20.5441 19.0086 22.1565 18.7026L22.2297 20.3363L20.6209 21.3451L18.6246 20.693V18.8905Z" fill="#37474F"/>
<path d="M15.5332 23.6321C16.4581 24.016 18.7037 24.2463 20.5063 24.2227C22.3089 24.1991 23.2527 23.775 23.2527 23.775L23.2231 24.8736C23.2231 24.8736 20.0243 26.2155 15.3962 24.6373L15.5332 23.6321Z" fill="#53B6C7"/>
<path opacity="0.3" d="M15.5332 23.6321C16.4581 24.016 18.7037 24.2463 20.5063 24.2227C22.3089 24.1991 23.2527 23.775 23.2527 23.775L23.2231 24.8736C23.2231 24.8736 20.0243 26.2155 15.3962 24.6373L15.5332 23.6321Z" fill="black"/>
<path d="M19.0664 30.487L19.924 27.0212C19.924 27.0212 21.2092 27.0377 22.0502 26.2522C22.0502 26.2522 21.9321 27.137 20.4048 27.6095L19.611 30.3629L19.1609 35.6136L19.0664 30.487Z" fill="#37474F"/>
<path d="M17.7008 12.9927L17.7079 13.2289C17.8928 13.7531 18.0269 14.2939 18.1083 14.8437C18.3564 16.3403 18.3989 18.3024 18.3989 20.5137V26.6066C18.3989 26.6066 15.6289 26.7838 14.7489 24.6693L15.1032 20.2373C15.1032 20.2373 14.5953 17.9457 14.4571 16.6357C14.3189 15.3256 14.072 14.4078 15.297 13.4061L17.7008 12.9927Z" fill="#53B6C7"/>
<path d="M14.8481 18.998C14.9864 19.6997 15.1057 20.2372 15.1057 20.2372L15.0927 20.4108C15.9491 20.9707 17.2189 21.3298 18.4002 21.2755V20.0375C17.1102 20.0966 15.6927 19.6572 14.8481 18.998Z" fill="#F0F0F0"/>
<path d="M18.3978 23.735V22.4923C17.1834 22.5478 15.8593 22.1616 15.0029 21.5674L14.9131 22.7404C15.7636 23.3747 17.1397 23.7917 18.3978 23.735Z" fill="#F0F0F0"/>
<path d="M20.3846 12.9641C21.1596 13.4308 21.7201 14.1834 21.9451 15.0597C22.3183 16.5268 22.3739 17.6844 22.4258 19.5685C22.4778 21.4526 22.401 26.7092 22.401 26.7092C22.401 26.7092 23.2279 26.3465 23.4098 25.9532C23.4098 25.9532 23.6461 19.2779 23.385 16.9119C23.124 14.5458 22.2676 13.2122 22.2676 13.2122C22.2676 13.2122 21.6557 12.9618 20.3846 12.9641Z" fill="#53B6C7"/>
<path d="M22.4459 21.0382C22.8034 21.0278 23.1593 20.9851 23.509 20.9106C23.509 20.4972 23.509 20.0837 23.509 19.6738C23.1526 19.7487 22.79 19.7907 22.4258 19.799C22.4388 20.1558 22.4436 20.5798 22.4459 21.0382Z" fill="#F0F0F0"/>
<path d="M23.489 23.3757C23.496 22.9954 23.5043 22.5748 23.509 22.1331C23.1613 22.2041 22.8078 22.2436 22.453 22.2512C22.453 22.6705 22.453 23.0899 22.453 23.4903C22.801 23.4819 23.1476 23.4436 23.489 23.3757Z" fill="#F0F0F0"/>
<path d="M15.916 13.431C15.2072 13.431 14.3803 13.4003 13.9161 14.4233C13.7649 14.7564 13.2983 16.7149 12.7797 18.521C11.8513 17.3398 11.0587 16.129 10.9559 15.914C10.6807 15.3387 10.6771 14.9501 10.396 14.3559C10.2341 14.0307 10.1089 13.6883 10.0227 13.3353C9.95537 13.0991 9.74511 13.2727 9.66833 13.3791C9.54536 13.5585 9.47761 13.7699 9.47342 13.9874C9.47342 14.141 9.47342 14.2981 9.46161 14.4493C9.4498 14.6005 9.399 14.5946 9.27615 14.526C9.02337 14.3843 8.80365 14.1398 8.59812 13.9437C8.39258 13.7476 8.11144 13.5633 7.88937 13.3531C7.66729 13.1428 7.55507 12.929 7.37434 12.7164C7.2385 12.5569 7.00697 12.3502 6.8286 12.5782C6.72229 12.7164 6.82034 12.877 6.86759 13.0152C6.92192 13.1723 6.86759 13.2881 6.83805 13.4428C6.78583 13.611 6.79082 13.7917 6.85223 13.9567C6.93728 14.1232 7.01288 14.226 6.99044 14.4221C6.97272 14.5839 6.91484 14.7387 6.93846 14.9052C6.95736 15.0423 7.05659 15.1415 7.1251 15.2596C7.24607 15.4694 7.39599 15.661 7.57043 15.829C7.77601 16.0372 7.99844 16.228 8.23547 16.3995C8.80365 16.8413 9.0151 16.9795 9.20528 17.1272C9.48996 17.3469 9.78409 17.9103 9.94947 18.221C10.2719 18.8305 10.9677 20.5292 11.8962 21.7447C12.4336 22.4451 13.1648 22.6684 13.8098 21.877C14.1476 21.4612 14.4347 20.802 14.6213 20.3035C15.3383 18.3935 15.8569 16.8224 15.8569 16.8224C15.8569 16.8224 16.4357 15.0375 15.916 13.431Z" fill="#FFA8A7"/>
<path d="M11.2996 16.468C11.1154 16.1892 10.9925 15.9873 10.9559 15.9117C10.6807 15.3364 10.6771 14.9478 10.396 14.3536C10.2342 14.029 10.109 13.6875 10.0227 13.3353C9.95537 13.0991 9.74511 13.2727 9.66833 13.3791C9.54536 13.5585 9.47761 13.7699 9.47342 13.9874C9.47342 14.141 9.47342 14.2981 9.46161 14.4493C9.4498 14.6005 9.399 14.5946 9.27615 14.526C9.02337 14.3843 8.80365 14.1398 8.59812 13.9437C8.39258 13.7476 8.11144 13.5633 7.88937 13.3531C7.66729 13.1428 7.55507 12.929 7.37434 12.7164C7.2385 12.5569 7.00697 12.3502 6.8286 12.5782C6.72229 12.7164 6.82034 12.877 6.86759 13.0152C6.92192 13.1723 6.86759 13.2881 6.83805 13.4428C6.78583 13.611 6.79082 13.7917 6.85223 13.9567C6.93728 14.1232 7.01288 14.226 6.99044 14.4221C6.97272 14.5839 6.91484 14.7387 6.93846 14.9052C6.95736 15.0423 7.05659 15.1415 7.1251 15.2596C7.24607 15.4694 7.39599 15.661 7.57043 15.829C7.77601 16.0372 7.99844 16.228 8.23547 16.3995C8.80365 16.8413 9.0151 16.9795 9.20528 17.1272C9.47579 17.3362 9.75456 17.8548 9.92348 18.1714C10.4881 17.8099 10.9996 17.1153 11.2996 16.468Z" fill="#455A64"/>
<path d="M11.1201 16.1928L11.0315 16.0605C11.0315 16.0605 11.0669 15.9058 11.211 16.1267C11.3406 16.3106 11.4526 16.5064 11.5453 16.7114C11.563 16.7952 11.4201 17.5182 10.9712 17.8773C10.5224 18.2364 10.1278 18.3439 10.0026 18.3285C9.8774 18.3131 9.84197 18.1997 9.76637 18.0497C9.69077 17.8997 9.51594 17.7154 9.5691 17.5772L9.67068 17.7202C10.0737 17.6168 10.4351 17.3915 10.7055 17.0752C11.1035 16.5684 11.1201 16.1928 11.1201 16.1928Z" fill="#53B6C7"/>
<path opacity="0.2" d="M11.1201 16.1928L11.0315 16.0605C11.0315 16.0605 11.0669 15.9058 11.211 16.1267C11.3406 16.3106 11.4526 16.5064 11.5453 16.7114C11.563 16.7952 11.4201 17.5182 10.9712 17.8773C10.5224 18.2364 10.1278 18.3439 10.0026 18.3285C9.8774 18.3131 9.84197 18.1997 9.76637 18.0497C9.69077 17.8997 9.51594 17.7154 9.5691 17.5772L9.67068 17.7202C10.0737 17.6168 10.4351 17.3915 10.7055 17.0752C11.1035 16.5684 11.1201 16.1928 11.1201 16.1928Z" fill="black"/>
<path d="M12.7798 18.5208C13.1196 19.1638 13.325 19.8691 13.3834 20.5939C13.5015 19.5178 13.1743 18.5338 12.8719 18.2019L12.7798 18.5208Z" fill="#F28F8F"/>
<path d="M16.0329 13.2788C15.3572 13.3851 15.2131 13.3969 14.7819 13.5458C14.3508 13.6946 14.0413 13.8423 13.6432 15.1405C13.2605 16.3926 12.9037 17.8172 12.9037 17.8172C12.9037 17.8172 13.2817 18.8071 15.1481 18.9984L16.1368 16.2414C16.1368 16.2414 16.4416 14.5782 16.0329 13.2788Z" fill="#EBEBEB"/>
<path d="M9.39308 14.7989C9.40208 14.8731 9.3889 14.9482 9.3552 15.0149C9.3215 15.0816 9.26879 15.1368 9.20372 15.1736C9.13866 15.2103 9.06417 15.227 8.98965 15.2214C8.91514 15.2158 8.84395 15.1883 8.78507 15.1423C8.72619 15.0963 8.68228 15.0338 8.65886 14.9629C8.63545 14.8919 8.6336 14.8156 8.65353 14.7436C8.67347 14.6716 8.7143 14.6071 8.77087 14.5583C8.82744 14.5095 8.89721 14.4785 8.97137 14.4693C9.02073 14.463 9.07085 14.4666 9.11883 14.4798C9.1668 14.493 9.21169 14.5156 9.2509 14.5462C9.2901 14.5769 9.32286 14.615 9.34726 14.6583C9.37166 14.7017 9.38723 14.7495 9.39308 14.7989Z" fill="#263238"/>
<path d="M31.0158 15.9885H30.5977C30.4899 15.9885 30.3866 16.0313 30.3104 16.1075C30.2341 16.1837 30.1913 16.2871 30.1913 16.3948V20.8151C30.1913 21.3477 29.9798 21.8584 29.6032 22.235C29.2266 22.6116 28.7158 22.8232 28.1832 22.8232H10.9334C10.4008 22.8232 9.89006 22.6116 9.51346 22.235C9.13686 21.8584 8.92529 21.3477 8.92529 20.8151V15.06C8.92529 15.0365 8.93463 15.014 8.95124 14.9974C8.96786 14.9808 8.99039 14.9714 9.01389 14.9714C9.03738 14.9714 9.05992 14.9808 9.07653 14.9974C9.09315 15.014 9.10248 15.0365 9.10248 15.06V20.7737C9.10248 21.0191 9.15083 21.262 9.24475 21.4887C9.33868 21.7154 9.47635 21.9213 9.64989 22.0947C9.82344 22.2681 10.0295 22.4057 10.2562 22.4995C10.4829 22.5933 10.7259 22.6414 10.9712 22.6413H28.1454C28.3908 22.6414 28.6337 22.5933 28.8605 22.4995C29.0872 22.4057 29.2932 22.2681 29.4667 22.0947C29.6403 21.9213 29.778 21.7154 29.8719 21.4887C29.9658 21.262 30.0141 21.0191 30.0141 20.7737V16.3948C30.0141 16.2401 30.0756 16.0917 30.1851 15.9822C30.2945 15.8728 30.4429 15.8113 30.5977 15.8113H31.3171C31.2217 15.8785 31.1209 15.9377 31.0158 15.9885Z" fill="#37474F"/>
<path d="M8.56981 14.9238C8.30403 14.8057 8.27568 14.5777 8.50721 14.404C8.63813 14.316 8.78804 14.2601 8.94468 14.241C9.10132 14.2219 9.26025 14.2401 9.4085 14.2942C9.67428 14.4123 9.70263 14.6403 9.47111 14.8139C9.34018 14.902 9.19028 14.9579 9.03364 14.977C8.877 14.9961 8.71806 14.9779 8.56981 14.9238Z" fill="#37474F"/>
<path d="M8.53905 14.7906C8.265 14.6724 8.23547 14.4362 8.47408 14.2543C8.60881 14.1628 8.76322 14.1045 8.92476 14.0839C9.0863 14.0634 9.2504 14.0813 9.40372 14.1361C9.67777 14.2543 9.7073 14.4905 9.46869 14.6724C9.33396 14.7639 9.17954 14.8222 9.01801 14.8428C8.85647 14.8633 8.69237 14.8454 8.53905 14.7906Z" fill="#263238"/>
<path d="M8.50837 14.6523C8.22487 14.5342 8.19534 14.2838 8.44104 14.0995C8.58008 14.0056 8.73936 13.946 8.90586 13.9255C9.07236 13.9049 9.24136 13.9241 9.39904 13.9814C9.68135 14.0995 9.71207 14.3499 9.46637 14.5342C9.32733 14.6281 9.16805 14.6877 9.00155 14.7083C8.83505 14.7288 8.66605 14.7096 8.50837 14.6523Z" fill="#37474F"/>
<path d="M8.47644 14.5092C8.18467 14.3911 8.15277 14.13 8.40674 13.9398C8.55031 13.8441 8.71443 13.7834 8.8858 13.7629C9.05717 13.7424 9.23096 13.7625 9.39309 13.8217C9.68486 13.9398 9.71675 14.2009 9.46278 14.3923C9.31911 14.4879 9.15494 14.5483 8.98358 14.5686C8.81222 14.5889 8.63848 14.5685 8.47644 14.5092Z" fill="#263238"/>
<path d="M8.44806 14.3594C8.15039 14.233 8.11849 13.9732 8.37719 13.7782C8.52381 13.6807 8.69137 13.6192 8.86626 13.5987C9.04114 13.5782 9.2184 13.5992 9.38361 13.6601C9.68129 13.7865 9.71318 14.0476 9.45449 14.2413C9.30795 14.339 9.14037 14.4006 8.96545 14.4211C8.79053 14.4417 8.61324 14.4205 8.44806 14.3594Z" fill="#37474F"/>
<path d="M8.4174 9.92124C7.94265 9.97914 7.51033 10.2232 7.2155 10.5998C6.92066 10.9763 6.78745 11.4546 6.84515 11.9294C7.0188 13.3469 8.22013 13.4437 8.28982 14.0166C8.30084 14.0713 8.32625 14.122 8.36342 14.1635C8.40059 14.205 8.44818 14.2359 8.50127 14.2529C8.64512 14.3048 8.79916 14.3223 8.95099 14.3038C9.10281 14.2853 9.24818 14.2315 9.37539 14.1466C9.42291 14.1179 9.46188 14.0771 9.48827 14.0282C9.51465 13.9794 9.52747 13.9244 9.52541 13.869C9.45572 13.2961 10.5992 12.9169 10.4267 11.4958C10.3983 11.2605 10.3238 11.033 10.2074 10.8264C10.0911 10.6198 9.93512 10.4382 9.7485 10.292C9.56188 10.1457 9.34826 10.0377 9.11985 9.97409C8.89145 9.91048 8.65275 9.89252 8.4174 9.92124Z" fill="#53B6C7"/>
<g opacity="0.6">
<path d="M8.4174 9.92124C7.94265 9.97914 7.51033 10.2232 7.2155 10.5998C6.92066 10.9763 6.78745 11.4546 6.84515 11.9294C7.0188 13.3469 8.22013 13.4437 8.28982 14.0166C8.30084 14.0713 8.32625 14.122 8.36342 14.1635C8.40059 14.205 8.44818 14.2359 8.50127 14.2529C8.64512 14.3048 8.79916 14.3223 8.95099 14.3038C9.10281 14.2853 9.24818 14.2315 9.37539 14.1466C9.42291 14.1179 9.46188 14.0771 9.48827 14.0282C9.51465 13.9794 9.52747 13.9244 9.52541 13.869C9.45572 13.2961 10.5992 12.9169 10.4267 11.4958C10.3983 11.2605 10.3238 11.033 10.2074 10.8264C10.0911 10.6198 9.93512 10.4382 9.7485 10.292C9.56188 10.1457 9.34826 10.0377 9.11985 9.97409C8.89145 9.91048 8.65275 9.89252 8.4174 9.92124Z" fill="white"/>
</g>
<path d="M8.60526 14.1562C8.41154 14.0735 8.39028 13.9034 8.5592 13.7771C8.65469 13.7131 8.7639 13.6724 8.87799 13.6585C8.99209 13.6445 9.10787 13.6576 9.21597 13.6967C9.4097 13.7794 9.43096 13.9495 9.26204 14.0759C9.16667 14.1402 9.05744 14.1809 8.94329 14.1949C8.82914 14.2089 8.71331 14.1956 8.60526 14.1562Z" fill="#53B6C7"/>
<path d="M9.13913 13.8527C9.12331 13.8547 9.10734 13.8504 9.09472 13.8406C9.0821 13.8309 9.07386 13.8165 9.07179 13.8007C9.02999 13.4559 9.02999 13.1073 9.07179 12.7624C9.08341 12.6629 9.10156 12.5642 9.12613 12.4671C9.06886 12.4538 9.01306 12.4348 8.95958 12.4104C8.86445 12.3667 8.77644 12.309 8.69852 12.2391C8.63959 12.3254 8.56836 12.4026 8.48708 12.4683C8.44172 12.5048 8.39262 12.5365 8.3406 12.5628C8.38809 12.6512 8.42953 12.7428 8.46463 12.8368C8.58792 13.1615 8.67199 13.4998 8.71506 13.8444C8.71641 13.8605 8.71151 13.8765 8.70139 13.889C8.69127 13.9015 8.6767 13.9097 8.66072 13.9118C8.64448 13.9131 8.62836 13.908 8.61579 13.8977C8.60321 13.8873 8.59518 13.8724 8.59339 13.8562C8.55095 13.5222 8.46927 13.1943 8.35005 12.8794C8.31551 12.7858 8.27405 12.695 8.22602 12.6077C8.16669 12.6275 8.10342 12.6326 8.04167 12.6226C7.97993 12.6125 7.92157 12.5875 7.87165 12.5498C7.83424 12.5219 7.80799 12.4817 7.79759 12.4362C7.7872 12.3907 7.79335 12.3431 7.81495 12.3017C7.82988 12.2731 7.85305 12.2495 7.88147 12.2342C7.90989 12.2188 7.94226 12.2123 7.97441 12.2155C8.07246 12.2238 8.17877 12.31 8.278 12.4612C8.32536 12.4383 8.36978 12.4097 8.4103 12.3761C8.48975 12.3138 8.55839 12.2387 8.61347 12.1541C8.57083 12.1104 8.53736 12.0586 8.51505 12.0018C8.49273 11.945 8.48202 11.8843 8.48353 11.8233C8.4896 11.7869 8.5073 11.7534 8.53397 11.7278C8.56065 11.7022 8.59487 11.686 8.63154 11.6815C8.66821 11.6769 8.70536 11.6844 8.73744 11.7027C8.76953 11.7211 8.79482 11.7493 8.80956 11.7832C8.8267 11.8422 8.83145 11.9042 8.82352 11.9651C8.81559 12.0261 8.79516 12.0848 8.76349 12.1375C8.83703 12.207 8.92167 12.2637 9.01391 12.3053C9.06151 12.3276 9.11143 12.3446 9.16275 12.3561C9.223 12.186 9.3045 12.0761 9.399 12.0454C9.42951 12.0356 9.46221 12.035 9.49306 12.0436C9.52392 12.0522 9.55158 12.0697 9.57265 12.0938C9.60277 12.1293 9.61932 12.1743 9.61932 12.2208C9.61932 12.2673 9.60277 12.3123 9.57265 12.3478C9.5337 12.3958 9.4837 12.4337 9.42692 12.4582C9.37014 12.4826 9.30828 12.493 9.24662 12.4884C9.21997 12.5851 9.20101 12.6839 9.18992 12.7837C9.15154 13.1177 9.15154 13.4549 9.18992 13.7889C9.19109 13.7969 9.19067 13.805 9.18869 13.8129C9.18671 13.8207 9.18321 13.8281 9.17838 13.8345C9.17356 13.841 9.1675 13.8465 9.16056 13.8506C9.15362 13.8547 9.14594 13.8575 9.13795 13.8586L9.13913 13.8527ZM7.9567 12.3336C7.94725 12.3336 7.93543 12.3407 7.9248 12.3608C7.9 12.4045 7.94016 12.4435 7.95315 12.4553C7.98219 12.4761 8.01535 12.4904 8.05039 12.4974C8.08544 12.5043 8.12156 12.5036 8.15633 12.4954C8.07718 12.3844 8.00749 12.336 7.96615 12.3336H7.9567ZM9.29033 12.3572C9.32611 12.3576 9.36151 12.3498 9.39384 12.3344C9.42617 12.3191 9.4546 12.2966 9.47696 12.2686C9.48641 12.2557 9.51713 12.2072 9.48287 12.1706C9.47776 12.1632 9.47043 12.1576 9.46194 12.1546C9.45345 12.1517 9.44423 12.1515 9.43562 12.1541C9.39664 12.1682 9.34112 12.232 9.29033 12.3584V12.3572ZM8.64655 11.7997C8.61583 11.7997 8.60756 11.8174 8.60402 11.8375C8.60401 11.9084 8.62912 11.977 8.67489 12.0312C8.7062 11.9674 8.71414 11.8947 8.69734 11.8257C8.69385 11.8157 8.68656 11.8075 8.67705 11.8028C8.66753 11.7982 8.65657 11.7975 8.64655 11.8009V11.7997Z" fill="white"/>
<path d="M9.57264 9.34958C9.55792 9.34387 9.5445 9.33526 9.53316 9.32427C9.52182 9.31328 9.5128 9.30013 9.50663 9.28559C9.50047 9.27105 9.49728 9.25543 9.49725 9.23964C9.49723 9.22385 9.50037 9.20821 9.50649 9.19366L9.74274 8.61721C9.75476 8.58848 9.77764 8.56566 9.8064 8.55371C9.83516 8.54177 9.86747 8.54166 9.89631 8.55342C9.91088 8.55914 9.92418 8.5677 9.93542 8.57861C9.94665 8.58951 9.95561 8.60255 9.96177 8.61695C9.96792 8.63135 9.97115 8.64683 9.97127 8.66248C9.97139 8.67814 9.96839 8.69367 9.96246 8.70816L9.72621 9.28579C9.72049 9.30051 9.71189 9.31394 9.7009 9.32528C9.68991 9.33662 9.67675 9.34564 9.66222 9.3518C9.64768 9.35797 9.63205 9.36116 9.61626 9.36118C9.60047 9.36121 9.58484 9.35807 9.57028 9.35194L9.57264 9.34958Z" fill="#E0E0E0"/>
<path d="M8.20719 9.17949C8.18784 9.17177 8.17087 9.15908 8.15801 9.14269C8.14515 9.1263 8.13685 9.1068 8.13395 9.08617L8.04772 8.46956C8.04334 8.43823 8.05158 8.40644 8.07063 8.38118C8.08968 8.35593 8.11798 8.33928 8.14931 8.33489C8.18064 8.33051 8.21243 8.33875 8.23768 8.3578C8.26293 8.37685 8.27959 8.40515 8.28397 8.43648L8.36902 9.05309C8.37135 9.06863 8.37056 9.08447 8.3667 9.09969C8.36283 9.11492 8.35596 9.12922 8.34651 9.14176C8.33705 9.15429 8.32518 9.16482 8.3116 9.17272C8.29803 9.18062 8.28301 9.18573 8.26743 9.18776C8.24698 9.1903 8.22621 9.18745 8.20719 9.17949Z" fill="#E0E0E0"/>
<path d="M6.93961 9.71593C6.92055 9.70815 6.90386 9.69553 6.89118 9.67931L6.50846 9.18791C6.49884 9.1755 6.49176 9.16132 6.48762 9.14617C6.48349 9.13103 6.48237 9.11522 6.48435 9.09964C6.48632 9.08406 6.49134 9.06903 6.49913 9.05539C6.50691 9.04176 6.51731 9.02979 6.52972 9.02017C6.54213 9.01056 6.55631 9.00348 6.57146 8.99934C6.5866 8.9952 6.60241 8.99409 6.61799 8.99607C6.63357 8.99804 6.6486 9.00306 6.66224 9.01085C6.67587 9.01863 6.68784 9.02903 6.69746 9.04144L7.08018 9.53166C7.08998 9.54399 7.09722 9.55816 7.10146 9.57333C7.10571 9.58851 7.10687 9.60437 7.10489 9.62C7.10291 9.63563 7.09782 9.65071 7.08993 9.66434C7.08203 9.67798 7.07149 9.68989 7.05892 9.69939C7.04234 9.7126 7.02252 9.7211 7.00153 9.72401C6.98054 9.72692 6.95915 9.72413 6.93961 9.71593Z" fill="#E0E0E0"/>
<path d="M5.53393 10.5795C5.50463 10.5674 5.48133 10.5442 5.46915 10.515C5.45696 10.4858 5.4569 10.4529 5.46896 10.4236C5.48102 10.3943 5.50422 10.371 5.53346 10.3588C5.56271 10.3466 5.59559 10.3465 5.62488 10.3586L6.20133 10.5949C6.21584 10.6008 6.22904 10.6094 6.24018 10.6204C6.25133 10.6314 6.2602 10.6445 6.26628 10.6589C6.27237 10.6734 6.27556 10.6889 6.27566 10.7045C6.27577 10.7202 6.27279 10.7357 6.26689 10.7502C6.261 10.7647 6.2523 10.7779 6.24131 10.789C6.23031 10.8002 6.21723 10.8091 6.2028 10.8151C6.18838 10.8212 6.1729 10.8244 6.15724 10.8245C6.14158 10.8246 6.12606 10.8216 6.11156 10.8158L5.53511 10.5795H5.53393Z" fill="#E0E0E0"/>
<path d="M5.32489 12.2639C5.30576 12.256 5.28903 12.2432 5.27639 12.2268C5.26374 12.2104 5.25562 12.191 5.25283 12.1705C5.2505 12.155 5.25129 12.1392 5.25516 12.1239C5.25903 12.1087 5.26589 12.0944 5.27535 12.0819C5.28481 12.0693 5.29667 12.0588 5.31025 12.0509C5.32383 12.043 5.33884 12.0379 5.35442 12.0359L5.97103 11.9496C6.00236 11.9453 6.03415 11.9535 6.0594 11.9725C6.08466 11.9916 6.10131 12.0199 6.1057 12.0512C6.11008 12.0826 6.10184 12.1143 6.08279 12.1396C6.06374 12.1649 6.03544 12.1815 6.00411 12.1859L5.3875 12.2721C5.36627 12.2755 5.34452 12.2726 5.32489 12.2639Z" fill="#E0E0E0"/>
<path d="M11.2039 11.4453C11.1784 11.4364 11.1567 11.4189 11.1426 11.3959C11.1284 11.3728 11.1225 11.3456 11.126 11.3188C11.1294 11.292 11.142 11.2672 11.1616 11.2485C11.1811 11.2298 11.2065 11.2184 11.2335 11.2162L11.8501 11.1299C11.8657 11.1276 11.8816 11.1285 11.8969 11.1324C11.9122 11.1363 11.9266 11.1433 11.9391 11.1529C11.9517 11.1625 11.9622 11.1745 11.97 11.1882C11.9778 11.2019 11.9829 11.217 11.9847 11.2327C11.9871 11.2483 11.9863 11.2641 11.9824 11.2793C11.9785 11.2945 11.9717 11.3088 11.9622 11.3214C11.9528 11.3339 11.9409 11.3444 11.9273 11.3523C11.9137 11.3602 11.8987 11.3654 11.8832 11.3674L11.2665 11.4524C11.2454 11.4562 11.2237 11.4537 11.2039 11.4453Z" fill="#E0E0E0"/>
<path d="M10.6701 10.1792C10.6505 10.1712 10.6333 10.1582 10.6205 10.1414C10.6103 10.129 10.6027 10.1146 10.5983 10.0992C10.5938 10.0838 10.5926 10.0677 10.5945 10.0517C10.5965 10.0358 10.6017 10.0205 10.6099 10.0066C10.618 9.99281 10.6288 9.98077 10.6417 9.97126L11.1331 9.58853C11.1455 9.57892 11.1597 9.57184 11.1749 9.5677C11.19 9.56356 11.2058 9.56245 11.2214 9.56443C11.237 9.5664 11.252 9.57142 11.2656 9.57921C11.2793 9.58699 11.2912 9.59739 11.3009 9.6098C11.3105 9.62221 11.3176 9.63639 11.3217 9.65154C11.3258 9.66668 11.3269 9.68249 11.325 9.69807C11.323 9.71364 11.318 9.72868 11.3102 9.74231C11.3024 9.75595 11.292 9.76792 11.2796 9.77753L10.7882 10.1603C10.772 10.1736 10.7525 10.1824 10.7317 10.1858C10.7109 10.1891 10.6897 10.1868 10.6701 10.1792Z" fill="#E0E0E0"/>
<path d="M14.7477 23.801L14.1216 24.1459C14.081 24.1712 14.0469 24.2059 14.0223 24.2469C13.9976 24.288 13.9831 24.3344 13.9799 24.3822C13.9645 24.9409 13.9125 27.138 14.0023 28.1881C14.0087 28.2362 14.0255 28.2823 14.0516 28.3231C14.0777 28.3639 14.1125 28.3985 14.1535 28.4244C14.5079 28.624 15.4694 29.1509 15.91 29.2725C16.0107 29.2897 16.1141 29.2787 16.2089 29.2406L16.653 29.0623C16.6944 29.0429 16.7298 29.0127 16.7554 28.9748C16.7809 28.937 16.7958 28.8929 16.7983 28.8473C16.7983 27.7322 17.0015 26.2261 17.1858 25.0118C17.1908 24.967 17.1822 24.9218 17.1611 24.8819C17.14 24.8421 17.1075 24.8096 17.0676 24.7885L15.0229 23.7915C14.9789 23.7738 14.9317 23.7654 14.8843 23.767C14.8369 23.7687 14.7903 23.7802 14.7477 23.801Z" fill="#455A64"/>
<path d="M14.0023 28.1835C13.9125 27.1334 13.9645 24.9363 13.9799 24.3776C13.9776 24.3597 13.9806 24.3417 13.9885 24.3256C13.9964 24.3094 14.0088 24.296 14.0242 24.2868C14.0397 24.2777 14.0574 24.2732 14.0754 24.274C14.0933 24.2748 14.1106 24.2808 14.1251 24.2913L16.0293 25.2363C16.0691 25.2587 16.1019 25.2915 16.1242 25.3314C16.1465 25.3712 16.1574 25.4163 16.1557 25.4619C16.1156 25.9569 15.9939 27.8185 16.0553 29.1333C16.0578 29.1523 16.0556 29.1717 16.0489 29.1896C16.0422 29.2076 16.0312 29.2237 16.0169 29.2365C16.0026 29.2493 15.9854 29.2584 15.9668 29.2631C15.9481 29.2677 15.9287 29.2678 15.91 29.2632C15.4694 29.1451 14.5091 28.6147 14.1535 28.4151C14.1131 28.3897 14.0786 28.3558 14.0525 28.3159C14.0264 28.2759 14.0093 28.2308 14.0023 28.1835Z" fill="#37474F"/>
<path d="M15.929 29.2691C16.0224 29.2794 16.117 29.2665 16.2042 29.2313L16.6495 29.0529C16.6902 29.0329 16.7248 29.0024 16.7499 28.9647C16.775 28.9269 16.7897 28.8832 16.7924 28.838C16.8799 27.6933 16.9956 26.2179 17.1811 25.0036C17.1864 24.9629 17.1785 24.9215 17.1586 24.8855L16.1286 25.358C16.1456 25.392 16.1533 25.4299 16.151 25.4679C16.1097 25.9652 15.9892 27.8304 16.0506 29.1404C16.0521 29.157 16.0501 29.1739 16.0446 29.1897C16.0391 29.2055 16.0303 29.22 16.0188 29.2322C16.0073 29.2444 15.9934 29.254 15.9779 29.2603C15.9624 29.2667 15.9457 29.2697 15.929 29.2691Z" fill="#263238"/>
<path d="M14.2456 24.7368L15.9136 25.5153L15.8332 26.9328L14.2007 26.2323C14.2007 26.2323 14.2161 25.2188 14.2456 24.7368Z" fill="#263238"/>
<path d="M15.8392 26.8465L14.2752 26.1767C14.2752 26.1767 14.2894 25.2506 14.3154 24.7722L15.9101 25.5152L15.8392 26.8465Z" fill="#53B6C7"/>
<path opacity="0.4" d="M15.8392 26.8465L14.2752 26.1767C14.2752 26.1767 14.2894 25.2506 14.3154 24.7722L15.9101 25.5152L15.8392 26.8465Z" fill="black"/>
<path d="M15.141 25.2812L14.7914 25.7868L15.0111 25.8624L14.8398 26.3089L15.2308 25.7821L15.0111 25.6994L15.141 25.2812Z" fill="#FAFAFA"/>
<path d="M15.7281 27.2575L15.7175 27.398C15.7177 27.4073 15.7156 27.4165 15.7112 27.4247C15.7068 27.4328 15.7003 27.4397 15.6924 27.4446C15.6845 27.4495 15.6755 27.4523 15.6662 27.4526C15.6569 27.4529 15.6477 27.4508 15.6395 27.4465L15.3867 27.3425C15.3663 27.3328 15.349 27.3173 15.3371 27.2981C15.3252 27.2788 15.319 27.2565 15.3194 27.2338L15.3277 27.0909C15.3272 27.0817 15.3292 27.0725 15.3334 27.0642C15.3377 27.056 15.344 27.0491 15.3519 27.0441C15.3597 27.0392 15.3687 27.0365 15.3779 27.0362C15.3872 27.0359 15.3963 27.038 15.4045 27.0425L15.6608 27.1488C15.6813 27.1585 15.6985 27.174 15.7104 27.1932C15.7224 27.2125 15.7285 27.2348 15.7281 27.2575Z" fill="#263238"/>
<path d="M15.7293 27.7148L15.7222 27.8553C15.7226 27.8646 15.7205 27.8737 15.7162 27.8819C15.712 27.8901 15.7057 27.897 15.6979 27.902C15.6902 27.907 15.6813 27.9099 15.6721 27.9104C15.6629 27.9109 15.6537 27.9091 15.6454 27.905L15.3903 27.8046C15.37 27.7951 15.3527 27.7802 15.3406 27.7613C15.3285 27.7425 15.3219 27.7206 15.3218 27.6982V27.5541C15.3212 27.545 15.323 27.5358 15.3271 27.5276C15.3312 27.5193 15.3374 27.5123 15.3451 27.5073C15.3528 27.5023 15.3617 27.4993 15.3709 27.4989C15.38 27.4984 15.3892 27.5003 15.3974 27.5045L15.6549 27.6073C15.6765 27.6159 15.6951 27.6307 15.7083 27.6498C15.7216 27.6689 15.7289 27.6915 15.7293 27.7148Z" fill="#263238"/>
<path d="M15.7317 28.1718V28.3123C15.7322 28.3216 15.7303 28.3309 15.7262 28.3393C15.722 28.3476 15.7157 28.3547 15.7079 28.3599C15.7002 28.365 15.6912 28.368 15.6819 28.3686C15.6725 28.3692 15.6632 28.3673 15.6549 28.3631L15.3997 28.2674C15.3788 28.2586 15.3608 28.2438 15.348 28.2249C15.3352 28.2061 15.3282 28.1839 15.3277 28.1611V28.017C15.3271 28.0078 15.3289 27.9987 15.333 27.9905C15.3371 27.9822 15.3433 27.9752 15.351 27.9702C15.3587 27.9651 15.3676 27.9622 15.3768 27.9617C15.386 27.9613 15.3951 27.9632 15.4033 27.9674L15.662 28.0654C15.6825 28.0747 15.7 28.0896 15.7123 28.1084C15.7247 28.1273 15.7314 28.1492 15.7317 28.1718Z" fill="#263238"/>
<path d="M15.7341 28.6348V28.7754C15.7347 28.7846 15.733 28.7939 15.729 28.8022C15.7249 28.8106 15.7188 28.8178 15.7112 28.823C15.7035 28.8283 15.6946 28.8314 15.6854 28.8322C15.6761 28.8329 15.6669 28.8313 15.6585 28.8273L15.401 28.7352C15.3801 28.7267 15.3621 28.7123 15.3492 28.6939C15.3362 28.6755 15.3287 28.6537 15.3277 28.6312V28.4871C15.3268 28.4779 15.3283 28.4686 15.3322 28.4602C15.336 28.4518 15.3421 28.4446 15.3497 28.4393C15.3573 28.434 15.3661 28.4308 15.3753 28.4301C15.3846 28.4294 15.3938 28.4311 15.4021 28.4352L15.6632 28.5297C15.6838 28.5386 15.7014 28.5533 15.7139 28.5719C15.7265 28.5905 15.7335 28.6123 15.7341 28.6348Z" fill="#263238"/>
<path d="M15.1612 26.9987L15.1541 27.1451C15.1546 27.1544 15.1526 27.1636 15.1484 27.1718C15.1441 27.18 15.1377 27.187 15.1299 27.1919C15.1221 27.1968 15.1131 27.1996 15.1038 27.1999C15.0946 27.2002 15.0854 27.198 15.0773 27.1936L14.8269 27.0896C14.806 27.0802 14.7883 27.0649 14.7759 27.0456C14.7635 27.0263 14.757 27.0039 14.7572 26.9809V26.8321C14.7564 26.8229 14.7582 26.8137 14.7623 26.8054C14.7664 26.7971 14.7726 26.7901 14.7804 26.7851C14.7882 26.7801 14.7972 26.7774 14.8064 26.7771C14.8156 26.7769 14.8248 26.7791 14.8328 26.7837L15.0879 26.89C15.1095 26.8988 15.128 26.9139 15.141 26.9332C15.154 26.9526 15.1611 26.9753 15.1612 26.9987Z" fill="#263238"/>
<path d="M15.16 27.4535L15.1529 27.6C15.1534 27.6092 15.1514 27.6184 15.1472 27.6267C15.1429 27.6349 15.1366 27.6418 15.1287 27.6468C15.1209 27.6517 15.1119 27.6545 15.1026 27.6548C15.0934 27.655 15.0842 27.6529 15.0761 27.6484L14.8257 27.5457C14.8046 27.5364 14.7866 27.5212 14.774 27.5019C14.7614 27.4826 14.7547 27.46 14.7548 27.437V27.2882C14.754 27.279 14.7558 27.2697 14.7599 27.2614C14.764 27.2532 14.7703 27.2462 14.778 27.2412C14.7858 27.2362 14.7948 27.2334 14.804 27.2332C14.8132 27.2329 14.8224 27.2352 14.8304 27.2397L15.0856 27.3449C15.1074 27.3535 15.1261 27.3685 15.1393 27.3879C15.1526 27.4072 15.1598 27.4301 15.16 27.4535Z" fill="#263238"/>
<path d="M15.1576 27.907V28.0535C15.1582 28.0627 15.1563 28.0719 15.1522 28.0801C15.1481 28.0883 15.1419 28.0953 15.1342 28.1003C15.1265 28.1054 15.1177 28.1083 15.1085 28.1088C15.0993 28.1093 15.0902 28.1073 15.082 28.1031L14.8292 28.0015C14.8083 27.9921 14.7906 27.9769 14.7782 27.9576C14.7658 27.9383 14.7593 27.9158 14.7595 27.8929V27.744C14.7586 27.7349 14.7603 27.7257 14.7642 27.7174C14.7682 27.7092 14.7743 27.7021 14.7819 27.697C14.7895 27.6919 14.7984 27.689 14.8076 27.6885C14.8167 27.6881 14.8258 27.6901 14.8339 27.6944L15.0891 27.7996C15.1096 27.809 15.1269 27.8242 15.1391 27.8433C15.1512 27.8623 15.1576 27.8845 15.1576 27.907Z" fill="#263238"/>
<path d="M15.1552 28.362V28.5084C15.1556 28.5175 15.1536 28.5265 15.1494 28.5346C15.1452 28.5426 15.139 28.5495 15.1313 28.5544C15.1237 28.5593 15.1149 28.5621 15.1058 28.5625C15.0967 28.5629 15.0877 28.561 15.0796 28.5569L14.8268 28.4565C14.8061 28.4474 14.7884 28.4326 14.7758 28.4137C14.7632 28.3949 14.7563 28.3728 14.756 28.3501V28.2001C14.7554 28.191 14.7572 28.1818 14.7613 28.1736C14.7654 28.1653 14.7716 28.1583 14.7793 28.1533C14.787 28.1483 14.7959 28.1453 14.8051 28.1448C14.8142 28.1444 14.8234 28.1463 14.8316 28.1505L15.0867 28.2545C15.1072 28.264 15.1246 28.2791 15.1367 28.2982C15.1489 28.3172 15.1553 28.3394 15.1552 28.362Z" fill="#263238"/>
<path d="M14.5954 26.7447V26.8971C14.5959 26.9062 14.594 26.9153 14.5898 26.9234C14.5856 26.9315 14.5793 26.9383 14.5716 26.9431C14.5638 26.948 14.5549 26.9506 14.5458 26.9508C14.5367 26.951 14.5277 26.9488 14.5198 26.9443L14.2705 26.8404C14.2496 26.831 14.2319 26.8157 14.2195 26.7964C14.2071 26.7771 14.2006 26.7546 14.2008 26.7317V26.5758C14.2002 26.5669 14.2019 26.558 14.2059 26.55C14.2098 26.542 14.2159 26.5352 14.2234 26.5304C14.2309 26.5255 14.2396 26.5228 14.2485 26.5225C14.2574 26.5222 14.2662 26.5242 14.2741 26.5285L14.5268 26.636C14.5475 26.6456 14.565 26.6609 14.5772 26.6802C14.5893 26.6995 14.5956 26.7219 14.5954 26.7447Z" fill="#263238"/>
<path d="M14.5977 27.1831V27.3355C14.5985 27.3446 14.5968 27.3537 14.5928 27.3619C14.5888 27.37 14.5826 27.3769 14.5749 27.3818C14.5672 27.3867 14.5584 27.3893 14.5493 27.3895C14.5402 27.3897 14.5312 27.3874 14.5233 27.3828L14.2741 27.2788C14.2529 27.2696 14.235 27.2544 14.2224 27.2351C14.2098 27.2158 14.2031 27.1932 14.2032 27.1701V27.0142C14.2024 27.0051 14.2041 26.996 14.2081 26.9879C14.2121 26.9797 14.2183 26.9728 14.226 26.9679C14.2337 26.9631 14.2426 26.9604 14.2517 26.9602C14.2608 26.96 14.2698 26.9624 14.2776 26.967L14.5304 27.0745C14.5509 27.0842 14.5681 27.0996 14.58 27.1189C14.592 27.1382 14.5981 27.1605 14.5977 27.1831Z" fill="#263238"/>
<path d="M14.5989 27.6248V27.7772C14.5995 27.7863 14.5975 27.7953 14.5933 27.8035C14.5892 27.8116 14.5829 27.8184 14.5751 27.8232C14.5674 27.828 14.5585 27.8307 14.5494 27.8309C14.5403 27.8311 14.5313 27.8289 14.5233 27.8244L14.2741 27.7205C14.2535 27.7106 14.236 27.6952 14.2235 27.676C14.211 27.6569 14.204 27.6346 14.2032 27.6118V27.4559C14.2024 27.4468 14.2041 27.4377 14.2081 27.4295C14.2121 27.4214 14.2183 27.4145 14.226 27.4096C14.2337 27.4047 14.2426 27.402 14.2517 27.4019C14.2608 27.4017 14.2698 27.404 14.2776 27.4086L14.5304 27.5161C14.5511 27.5257 14.5686 27.541 14.5807 27.5603C14.5929 27.5796 14.5992 27.602 14.5989 27.6248Z" fill="#263238"/>
<path d="M14.6 28.0665V28.2188C14.6008 28.2279 14.5991 28.237 14.5951 28.2452C14.5911 28.2534 14.5849 28.2603 14.5772 28.2651C14.5695 28.27 14.5606 28.2727 14.5515 28.2728C14.5424 28.273 14.5334 28.2707 14.5256 28.2661L14.2752 28.1621C14.2542 28.1528 14.2365 28.1375 14.2241 28.1182C14.2118 28.0989 14.2053 28.0764 14.2055 28.0535V27.8975C14.2048 27.8887 14.2065 27.8797 14.2105 27.8718C14.2145 27.8638 14.2205 27.857 14.228 27.8522C14.2355 27.8473 14.2442 27.8446 14.2531 27.8443C14.262 27.8439 14.2709 27.846 14.2787 27.8503L14.5315 27.9566C14.5518 27.9669 14.569 27.9826 14.581 28.002C14.5931 28.0214 14.5997 28.0437 14.6 28.0665Z" fill="#263238"/>
<path d="M43.1249 46.6487L42.0346 46.2778C41.9413 45.2336 42.0759 42.7033 43.7734 41.2185C45.4968 39.7112 46.6214 40.6775 46.5883 41.3366C46.5529 42.056 45.0066 42.7305 44.2258 43.6991C43.373 44.7528 43.1072 45.4733 43.1249 46.6487Z" fill="#53B6C7"/>
<path opacity="0.5" d="M43.1249 46.6487L42.0346 46.2778C41.9413 45.2336 42.0759 42.7033 43.7734 41.2185C45.4968 39.7112 46.6214 40.6775 46.5883 41.3366C46.5529 42.056 45.0066 42.7305 44.2258 43.6991C43.373 44.7528 43.1072 45.4733 43.1249 46.6487Z" fill="white"/>
<path d="M42.389 46.4561C42.3735 46.4558 42.3588 46.4494 42.348 46.4384C42.3372 46.4274 42.3311 46.4125 42.3311 46.3971C42.3465 43.588 44.4326 41.1299 45.4721 40.9704C45.4798 40.9692 45.4877 40.9696 45.4953 40.9715C45.5029 40.9734 45.5101 40.9768 45.5164 40.9814C45.5227 40.9861 45.5281 40.9919 45.5321 40.9987C45.5361 41.0054 45.5388 41.0128 45.54 41.0206C45.5411 41.0283 45.5408 41.0363 45.5389 41.0439C45.537 41.0515 45.5336 41.0586 45.5289 41.065C45.5243 41.0713 45.5184 41.0766 45.5117 41.0806C45.505 41.0847 45.4975 41.0873 45.4898 41.0885C44.4715 41.2444 42.4634 43.7451 42.4492 46.3982C42.4491 46.406 42.4474 46.4136 42.4443 46.4207C42.4412 46.4279 42.4367 46.4343 42.4311 46.4397C42.4255 46.445 42.4189 46.4492 42.4117 46.4521C42.4045 46.4549 42.3968 46.4563 42.389 46.4561Z" fill="white"/>
<path d="M45.7154 44.1304C44.7704 43.8198 42.715 44.8534 42.317 46.3748L43.1249 46.6477C43.7774 46.1145 44.5673 45.7767 45.4036 45.6732C46.7348 45.5397 46.6569 44.4411 45.7154 44.1304Z" fill="#53B6C7"/>
<path opacity="0.65" d="M45.7154 44.1304C44.7704 43.8198 42.715 44.8534 42.317 46.3748L43.1249 46.6477C43.7774 46.1145 44.5673 45.7767 45.4036 45.6732C46.7348 45.5397 46.6569 44.4411 45.7154 44.1304Z" fill="white"/>
<path d="M42.6854 46.5804C42.676 46.5807 42.6667 46.5787 42.6582 46.5745C42.6445 46.567 42.6341 46.5544 42.6295 46.5394C42.6249 46.5244 42.6263 46.5081 42.6334 46.4941C43.4426 44.9314 45.1991 44.4695 45.9138 44.6609C45.9213 44.6628 45.9283 44.6662 45.9345 44.6709C45.9407 44.6755 45.9458 44.6814 45.9497 44.6881C45.9535 44.6949 45.956 44.7023 45.9569 44.71C45.9579 44.7177 45.9572 44.7255 45.9551 44.7329C45.9509 44.7479 45.9411 44.7608 45.9277 44.7687C45.9142 44.7766 45.8982 44.7791 45.8831 44.7754C45.2003 44.5923 43.5206 45.0412 42.7386 46.5473C42.7338 46.5573 42.7263 46.5658 42.7168 46.5717C42.7074 46.5775 42.6965 46.5805 42.6854 46.5804Z" fill="white"/>
<path d="M41.7735 29.1404V46.6087C41.7787 46.6668 41.7995 46.7225 41.8335 46.7699C41.8676 46.8172 41.9138 46.8546 41.9672 46.878C42.1119 46.952 42.272 46.9905 42.4344 46.9905C42.5968 46.9905 42.757 46.952 42.9016 46.878C42.9549 46.8544 43.0009 46.817 43.035 46.7696C43.069 46.7223 43.0898 46.6668 43.0953 46.6087V29.1404H41.7735Z" fill="#455A64"/>
<path d="M41.7735 32.4148L43.0953 31.6517V29.1404H41.7735V32.4148Z" fill="#37474F"/>
<path d="M39.9272 32.1337L49.0441 26.8701V10.5535L39.9272 15.8171V32.1337Z" fill="#53B6C7"/>
<path d="M49.0441 10.5532L44.9417 8.18481L35.8248 13.4485L39.9273 15.8169L49.0441 10.5532Z" fill="#53B6C7"/>
<path opacity="0.2" d="M49.0441 10.5532L44.9417 8.18481L35.8248 13.4485L39.9273 15.8169L49.0441 10.5532Z" fill="white"/>
<path d="M35.8248 13.4485V29.7651L39.9273 32.1335V15.8169L35.8248 13.4485Z" fill="#53B6C7"/>
<path opacity="0.2" d="M35.8248 13.4485V29.7651L39.9273 32.1335V15.8169L35.8248 13.4485Z" fill="black"/>
<path d="M45.7402 14.7952L42.3594 23.5896L44.4857 21.8697L42.8319 28.0878L46.6119 18.633L44.4857 20.2915L45.7402 14.7952Z" fill="#FAFAFA"/>
<path d="M40.6171 15.9482C40.7423 15.8761 40.8451 15.9352 40.8451 16.0805C40.8407 16.1595 40.8178 16.2364 40.7782 16.305C40.7386 16.3735 40.6834 16.4318 40.6171 16.475C40.4907 16.5483 40.3891 16.4892 40.3891 16.3439C40.3934 16.2647 40.4163 16.1876 40.4559 16.1188C40.4955 16.0501 40.5507 15.9916 40.6171 15.9482Z" fill="#37474F"/>
<path d="M40.6171 30.6877C40.7423 30.6145 40.8451 30.6735 40.8451 30.8188C40.8407 30.8979 40.8178 30.9748 40.7782 31.0433C40.7386 31.1119 40.6834 31.1701 40.6171 31.2134C40.4907 31.2866 40.3891 31.2275 40.3891 31.0822C40.3932 31.0031 40.416 30.9261 40.4556 30.8576C40.4953 30.789 40.5506 30.7308 40.6171 30.6877Z" fill="#37474F"/>
<path d="M48.3601 11.4748C48.4865 11.4016 48.5881 11.4606 48.5881 11.6059C48.584 11.685 48.5612 11.7621 48.5216 11.8306C48.4819 11.8992 48.4266 11.9574 48.3601 12.0005C48.2349 12.0737 48.1333 12.0147 48.1333 11.8694C48.1375 11.7904 48.1601 11.7135 48.1996 11.645C48.239 11.5764 48.294 11.5181 48.3601 11.4748Z" fill="#37474F"/>
<path d="M48.3601 26.2131C48.4865 26.1399 48.5881 26.1989 48.5881 26.3442C48.584 26.4233 48.5612 26.5003 48.5216 26.5689C48.4819 26.6375 48.4266 26.6957 48.3601 26.7388C48.2349 26.812 48.1333 26.7529 48.1333 26.6076C48.1375 26.5287 48.1601 26.4518 48.1996 26.3833C48.239 26.3147 48.294 26.2564 48.3601 26.2131Z" fill="#37474F"/>
<path d="M49.0441 10.5534V22.1332L54.0585 19.238V2.92139L44.9416 8.18504L49.0441 10.5534Z" fill="#53B6C7"/>
<path d="M54.0586 2.92138L44.9417 8.18503L44.4857 7.92161L53.6026 2.65796L54.0586 2.92138Z" fill="#53B6C7"/>
<path opacity="0.2" d="M54.0586 2.92138L44.9417 8.18503L44.4857 7.92161L53.6026 2.65796L54.0586 2.92138Z" fill="white"/>
<path d="M44.4857 8.44847V7.92163L44.9417 8.18505L44.4857 8.44847Z" fill="#53B6C7"/>
<path opacity="0.2" d="M44.4857 8.44847V7.92163L44.9417 8.18505L44.4857 8.44847Z" fill="black"/>
<path opacity="0.2" d="M44.9416 8.18481L50.8124 9.79604V21.1124L49.0441 22.133V10.5532L44.9416 8.18481Z" fill="black"/>
</svg>
